<?xml version="1.0" encoding="UTF-8"?>
<!DOCTYPE svg PUBLIC "-//W3C//DTD SVG 1.1//EN" "http://www.w3.org/Graphics/SVG/1.1/DTD/svg11.dtd">
<!-- Creator: CorelDRAW Home & Student 2018 -->
<svg xmlns="http://www.w3.org/2000/svg" xml:space="preserve" width="163.131mm" height="44.5949mm" version="1.1" style="shape-rendering:geometricPrecision; text-rendering:geometricPrecision; image-rendering:optimizeQuality; fill-rule:evenodd; clip-rule:evenodd"
viewBox="0 0 16207.98 4430.75"
 xmlns:xlink="http://www.w3.org/1999/xlink">
 <defs>
  <style type="text/css">
   <![CDATA[
    .fil1 {fill:#333333}
    .fil0 {fill:#8BC34A}
    .fil2 {fill:#333333;fill-rule:nonzero}
   ]]>
  </style>
 </defs>
 <g id="Camada_x0020_1">
  <metadata id="CorelCorpID_0Corel-Layer"/>
  <g id="_723184856">
   <path class="fil0" d="M2463.14 1791.39c-112.56,0 -203.8,91.24 -203.8,203.81 0,112.56 91.24,203.8 203.8,203.8 112.56,0 203.81,-91.24 203.81,-203.8 0,-112.57 -91.25,-203.81 -203.81,-203.81zm780.84 0c-112.56,0 -203.81,91.24 -203.81,203.81 0,112.56 91.25,203.8 203.81,203.8 112.56,0 203.81,-91.24 203.81,-203.8 0,-112.57 -91.25,-203.81 -203.81,-203.81zm219.19 -158.51l-1270.02 0c-65.62,0 -120.31,-49.1 -129.17,-112.4l-267.85 -1259.14 -133.55 0c-71.73,0 -130.43,-58.7 -130.43,-130.44l0 0c0,-71.75 58.7,-130.43 130.43,-130.43l78.06 0 -0.1 -0.46 1.3 0.46 155.9 0c60.03,0 110.91,41.08 125.93,96.53l0.01 0 0.04 0.21c1.04,3.85 1.91,7.76 2.58,11.75l54.53 248.51 1586.83 0c22.65,0 42.2,9.35 56.42,27 14.24,17.65 19.2,38.71 14.38,60.88l-132.43 608.7c-7.32,33.68 -36.33,57.07 -70.8,57.07l-148.37 0 -0.52 0 -676.83 0 -420.39 0c-11.41,0 -21.23,4.72 -28.34,13.64 -7.1,8.92 -9.52,19.54 -6.97,30.66l43.15 188.44c3.83,16.65 18.22,28.13 35.31,28.13l377.24 0 645.72 0 107.94 0c71.75,0 130.45,58.7 130.45,130.44l0 0c0,71.75 -58.7,130.45 -130.45,130.45zm-106.55 -797.11l-1141.57 0c-17.27,0 -31.79,-11.75 -35.42,-28.64l-27.96 -130.49c-2.36,-11.06 0.14,-21.55 7.25,-30.36 7.12,-8.81 16.86,-13.44 28.19,-13.44l1197.22 0c11.3,0 21.02,4.63 28.15,13.42 7.1,8.77 9.63,19.27 7.28,30.33l-27.71 130.47c-3.59,16.92 -18.14,28.71 -35.43,28.71z"/>
   <path class="fil0" d="M15148.88 576.8l0 291.17 899.16 0 0 267.48 -899.16 0 0 282.45 1059.1 0 0 267.48 -1452.09 0 0 -1376.36 1452.09 0 0 267.77 -1059.1 0zm-6794.73 1121.8c-98.47,0 -197.17,-5.52 -294.86,-18.12 -88.7,-11.44 -176.88,-28.59 -262.64,-54.18 -78.92,-23.56 -155.89,-53.68 -229.17,-91.36l-69.06 -35.51 270.93 -201.86 26.99 14.14c79.79,41.83 165.25,71.34 253.2,90.49 99.83,21.72 202.54,30.42 304.6,30.42 105.66,0 237.82,-7.57 336.78,-47.8 43.72,-17.78 96.06,-47.2 96.06,-100.79l0 -0.9c0,-29.3 -11.59,-49.52 -35.75,-65.96 -38.37,-26.12 -85.6,-41.19 -130.67,-50.61 -75.26,-15.69 -153.38,-25.52 -229.74,-34.14 -1.74,-0.18 -3.52,-0.47 -3.99,-0.59 -5.3,0 -10.13,-0.62 -15.33,-1.2l-21.28 -2.4c-115.68,-13.04 -235.14,-26.78 -349.12,-50.58 -89.89,-18.77 -174.35,-53.75 -247.12,-110.4 -79.08,-61.55 -112.76,-148.24 -112.76,-247.27l0 -0.89c0,-93.24 35.32,-173.24 102.55,-237.71 74.94,-71.84 178.2,-113.98 277.29,-139.84 134.41,-35.09 278.72,-45.73 417.25,-45.73 76.52,0 153.01,5.19 228.81,15.46 75.22,10.19 149.56,25.63 222.74,45.72 73.77,20.28 145.87,46.23 215.98,76.81l71.34 31.12 -251.02 212.28 -27.78 -12.38c-74.4,-33.14 -151.46,-59.68 -230.98,-77.47 -75.29,-16.81 -151.9,-25.56 -229.08,-25.56 -99.46,0 -224.49,7.89 -316.8,48.22 -45.18,19.74 -90.28,49.78 -90.28,103.98l0 0.89c0,29.19 14.03,47.43 38.31,62.35 41.3,25.35 90.64,40.35 137.93,49.6 82.91,16.22 168.57,26.99 252.45,36.99 3.05,0.35 6.15,0.77 9.23,1.02 4.45,0.39 8.71,1.17 13.1,1.76 4.38,0.58 8.72,1.17 13.11,1.51 6.1,0.46 12.18,0.98 18.24,1.74 108.73,13.53 219.45,30.73 325.77,57.56 85.46,21.6 166.44,57.98 234.22,115.05 71.9,60.53 103.41,142.4 103.41,235.58l0 1.5c0,93.97 -37.62,173.13 -107,236.17 -78.39,71.25 -184.28,112.36 -285.66,137.9 -138.62,34.92 -287.64,45.01 -430.21,45.01zm1845.31 -1121.8l0 1108.59 -392.48 0 0 -1108.59 -596.67 0 0 -267.77 1585.3 0 0 267.77 -596.14 0zm1478.09 1121.8c-136.53,0 -275.68,-16.2 -405.11,-61.25 -106.45,-37.06 -206.46,-93.37 -280.75,-179.63 -68.77,-79.9 -103.81,-173.64 -103.81,-279.1l0 -362.52c0,-105.59 34.87,-199.48 103.85,-279.44 74.28,-86.1 174.35,-142.57 280.71,-179.59 129.43,-45.06 268.58,-61.26 405.11,-61.26 136.36,0 275.34,16.26 404.61,61.26 106.28,36.99 206.96,93.53 281.19,179.6 68.95,79.95 103.85,173.84 103.85,279.43l0 362.52c0,105.44 -35.05,199.2 -103.81,279.08 -74.23,86.26 -174.85,142.61 -281.23,179.65 -129.26,45 -268.25,61.25 -404.61,61.25zm2330.9 -592.76l503.58 579.55 -480.03 0 -450.3 -541.24 -369.33 0 0 541.24 -392.98 0 0 -1377.27 885.75 0c113.26,0 228.6,12.79 336.51,48.4 88,29.04 172.28,73.84 235.12,143.21 58,64.03 88.77,140.06 88.77,226.56 0,86.7 -30.97,162.83 -89.45,226.73 -63.32,69.19 -147.71,113.94 -235.91,143.05 -10.51,3.47 -21.1,6.73 -31.74,9.77zm-2330.9 318.97c71.79,0 145.55,-8.63 213.45,-32.92 50.43,-18.02 97.9,-44.98 132.56,-86.61 29.41,-35.29 43.26,-74.75 43.26,-120.66l0 -374.85c0,-45.74 -13.94,-85.47 -43.24,-120.66 -34.68,-41.62 -82.15,-68.57 -132.6,-86.61 -67.88,-24.28 -141.61,-32.93 -213.43,-32.93 -71.99,0 -145.85,8.57 -213.93,32.93 -50.45,18.04 -97.92,45 -132.59,86.61 -29.33,35.19 -43.25,74.91 -43.25,120.66l0 374.85c0,45.91 13.85,85.37 43.26,120.66 34.66,41.63 82.13,68.59 132.56,86.61 68.08,24.34 141.96,32.92 213.95,32.92zm1534.82 -548.12l504.14 0c44.8,0 90.29,-5.54 132.4,-21.48 30.36,-11.51 59.68,-28.34 79.85,-54.36 17.18,-22.17 25,-46.54 25,-74.56 0,-27.82 -7.8,-52.48 -24.93,-74.46 -20.18,-25.89 -49.28,-42.92 -79.57,-54.49 -41.74,-15.95 -88.3,-21.44 -132.75,-21.44l-504.14 0 0 300.78z"/>
   <path class="fil1" d="M1265.11 1199.72l0 -890.69 389.99 0 0 1375.46 -339.09 0 -925.98 -877.05 0 877.05 -390.03 0 0 -1375.46 336.29 0 928.82 890.69zm3750.68 204.85l-794.54 0 -158.96 280.82 -433.71 0 836.74 -1376.36 306.49 0 836.79 1376.36 -433.76 0 -159.07 -280.82zm1966.12 -298.73l503.58 579.55 -480.03 0 -450.3 -541.24 -369.31 0 0 541.24 -393 0 0 -1377.27 885.75 0c113.26,0 228.62,12.79 336.53,48.4 87.99,29.04 172.27,73.86 235.1,143.21 58,64.03 88.79,140.06 88.79,226.56 0,86.7 -30.99,162.83 -89.47,226.73 -63.32,69.19 -147.71,113.94 -235.91,143.05 -10.51,3.47 -21.1,6.73 -31.74,9.77zm-2117.64 31.25l-245.9 -434.13 -245.73 434.13 491.63 0zm1321.59 -260.4l504.14 0c44.8,0 90.27,-5.54 132.38,-21.48 30.36,-11.51 59.68,-28.34 79.85,-54.36 17.18,-22.17 25,-46.54 25,-74.56 0,-27.82 -7.8,-52.48 -24.93,-74.46 -20.18,-25.89 -49.28,-42.92 -79.57,-54.49 -41.74,-15.95 -88.28,-21.44 -132.73,-21.44l-504.14 0 0 300.78z"/>
  </g>
  <path class="fil2" d="M6813.2 2897.21c-12.57,-146.12 -135.12,-216.82 -285.96,-219.97 -18.86,-20.42 -40.85,-28.28 -59.71,-28.28 -36.14,0 -70.7,22 -94.27,45.56 -109.99,28.29 -326.82,141.41 -326.82,221.54 0,9.43 6.29,14.14 14.14,14.14 11,0 26.72,-7.85 42.42,-23.57 43.99,-43.99 114.71,-86.42 191.7,-111.56 -111.57,153.98 -260.83,403.81 -260.83,403.81 -98.99,168.12 -179.12,351.96 -179.12,395.95 0,83.28 78.56,153.98 158.69,153.98 229.4,0 801.33,-399.09 801.33,-813.9 0,-12.57 0,-25.14 -1.57,-37.72zm-809.19 755.77c23.57,-72.27 95.85,-270.25 229.4,-458.79l83.28 -128.84c75.41,-131.98 72.27,-119.42 138.26,-218.4l3.14 -4.72c15.72,-23.57 33,-50.27 47.14,-72.27 76.99,14.14 131.98,64.42 131.98,168.12 0,395.95 -507.51,708.63 -633.21,714.91zm1403.12 -506.2c0,0 -103.7,12.57 -490.22,376.31 0,0 -9.43,12.31 -22,24.88l-56.57 69.13c0,18.86 -26.71,26.45 -26.71,26.45 -9.43,0 -17.29,9.43 -22,9.43 -7.86,0 -12.57,-9.43 -12.57,-20.16 0,-34.57 37.71,-106.85 97.42,-232.02 306.39,-67.56 358.24,-260.3 359.81,-258.73 12.58,-26.71 17.29,-48.7 17.29,-67.56 0,-81.44 -95.85,-105.01 -97.42,-105.01 -12.57,-3.14 -26.71,-4.71 -39.28,-4.71 -125.7,0 -259.26,142.71 -397.53,401.45 -61.27,114.44 -86.41,200.6 -86.41,261.87 0,83.02 47.13,120.73 108.41,120.73 64.42,0 87.99,-4.71 207.4,-160 100.56,-83.01 268.69,-287.02 487.09,-349.6l-26.72 -92.44zm-281.25 -79.87c6.28,-1.57 28.28,-4.71 43.99,-7.86 -1.58,26.45 -7.86,46.88 -12.58,61.01 0,0 -95.84,184.89 -234.11,189.6 81.71,-128.32 193.27,-241.19 202.7,-242.76zm611.2 -471.37c-72.28,26.71 -392.81,564.07 -392.81,564.07 -106.85,177.56 -191.69,375.53 -191.69,424.24 0,64.42 53.41,135.12 114.7,157.12 1.57,6.29 4.71,7.86 11,7.86 3.14,0 6.29,0 11,-1.57 7.86,1.57 14.14,1.57 22,1.57l0 -12.57c83.28,-58.13 226.26,-355.1 469.8,-471.37l-42.42 -89.56c0,0 -98.99,29.86 -417.95,447.8 28.28,-89.57 106.85,-287.54 237.25,-468.23l89.57 -139.84c80.13,-141.41 78.56,-125.69 149.26,-234.11l1.57 -3.14c45.56,-67.57 97.42,-147.7 97.42,-147.7 -26.71,-45.56 -56.56,-61.27 -86.42,-61.27 -26.71,0 -53.42,12.57 -72.27,26.71zm-48.7 1046.18c26.71,-85.11 127.26,-371.6 329.96,-590.26 0,0 1.57,-64.42 -100.56,-89.83 -3.15,0 -4.72,0 -7.86,0 -108.42,0 -377.09,543.13 -377.09,618.55 0,64.68 53.41,133.81 114.7,154.51 0,9.43 3.14,14.14 14.14,14.14 6.29,0 11,-7.86 26.72,-7.86l0 -1.57c80.13,-52.11 219.97,-346.45 458.79,-461.42l-40.85 -86.42c0,0 -98.99,29.86 -417.95,450.16zm364.53 -736.65l136.69 -125.69c-18.85,-64.42 -56.56,-83.28 -94.27,-83.28 -20.43,0 -39.29,4.72 -54.99,11 -22,20.43 -67.56,86.42 -67.56,138.27 0,33 20.42,59.7 80.13,59.7zm587.64 56.56c-3.14,0 -163.41,-4.71 -601.79,668.83 34.58,-105.8 136.7,-370.56 325.25,-575.6 0,-1.58 1.57,-66.26 -100.56,-91.66 -3.14,0 -4.72,0 -7.86,0 -109.99,0 -380.23,547.31 -380.23,624.56 0,67.83 65.99,161.06 141.4,161.06 50.28,0 366.1,-585.28 667.78,-693.96l-43.99 -93.24zm949.03 342.54c0,0 -98.99,29.85 -424.24,455.65 28.28,-86.42 130.41,-377.09 334.67,-598.64 0,0 0,-1.58 0,-3.15l1.58 1.57c1.57,-7.85 3.14,-17.28 3.14,-26.71 0,-100.56 -51.85,-166.55 -265.54,-166.55 -4.72,0 -9.43,0 -12.57,0l-1.58 0c-54.99,1.57 -75.42,14.14 -75.42,47.13 0,12.57 1.58,22 3.15,29.86 -4.72,18.86 -279.69,347.24 -428.95,482.37 0,0 -9.43,12.57 -22,26.71l-34.57 42.42c-54.99,54.99 -4.72,6.29 -42.42,43.99 -11,11 -18.86,17.29 -33,17.29 -4.72,0 -7.86,-12.58 -7.86,-20.43 0,-34.57 39.29,-106.85 97.42,-232.54 278.11,-61.28 364.53,-246.69 361.39,-260.83 12.57,-25.14 17.28,-48.71 17.28,-67.56 0,-81.71 -91.13,-103.71 -98.99,-105.28 -14.14,-3.14 -26.71,-4.71 -40.85,-4.71 -122.56,0 -259.26,141.41 -399.1,405.38 -61.27,113.13 -84.84,199.55 -84.84,260.82 0,84.85 47.13,122.55 108.41,122.55 61.28,0 84.85,0 193.27,-138.26 135.12,-153.98 452.51,-513.8 502.8,-537.36 4.71,0 9.43,0 15.71,0 33,0 64.42,4.71 94.28,9.43 -128.84,98.99 -342.53,540.5 -342.53,609.64 0,65.99 53.41,136.7 116.27,157.13 0,9.42 3.14,14.14 12.57,14.14 7.86,0 14.15,-7.86 28.29,-7.86l0 -1.57c81.7,-53.42 223.11,-350.39 466.65,-466.65l-42.41 -87.99zm-859.47 7.85c75.42,-119.42 175.98,-223.11 199.55,-241.97 6.29,-1.57 26.72,-4.71 42.42,-6.28 -9.43,33 -70.7,241.97 -241.97,248.25zm1597.95 86.68c-43.99,23.58 -72.28,51.85 -227.83,138.8 15.72,-23.84 237.26,-389.67 237.26,-389.67 0,0 0,0 -1.57,0 1.57,0 1.57,0 1.57,0 0,0 -50.28,-168.65 -138.27,-186.19l-3.14 0c0,0 0,0 0,0 0,0 0,0 0,0 0,0 0,0 0,0 -23.57,3.15 -190.12,41.11 -598.65,668.83 34.57,-105.8 136.7,-370.56 325.25,-575.6 0,-1.58 1.57,-66.26 -100.56,-91.66 -3.15,0 -4.72,0 -7.86,0 -109.99,0 -380.24,547.31 -380.24,624.56 0,67.83 69.14,161.06 141.41,161.06 43.99,0 289.11,-441.78 546.79,-626.14 -61.27,137.22 -179.12,381.54 -318.96,600.73 -196.41,80.14 -697.62,395.17 -697.62,583.2 0,43.99 47.13,124.12 168.12,124.12 207.4,0 557.79,-445.44 788.76,-790.86 205.82,-112.07 278.11,-187.76 285.96,-200.33 3.14,-4.71 4.71,-14.14 4.71,-23.57 0,-11 -3.14,-20.43 -12.57,-20.43 -3.14,0 -7.86,0 -12.57,3.14zm-1142.29 912.63c-6.29,-3.14 -9.43,-9.43 -9.43,-15.45 0,-91.13 469.8,-431.04 571.93,-459.32 -168.12,243.01 -383.38,456.18 -562.5,474.77z"/>
 </g>
</svg>
