<?xml version="1.0" encoding="UTF-8"?>
<!DOCTYPE svg PUBLIC "-//W3C//DTD SVG 1.1//EN" "http://www.w3.org/Graphics/SVG/1.1/DTD/svg11.dtd">
<!-- Creator: CorelDRAW Home & Student 2018 -->
<svg xmlns="http://www.w3.org/2000/svg" xml:space="preserve" width="176.686mm" height="151.13mm" version="1.1" style="shape-rendering:geometricPrecision; text-rendering:geometricPrecision; image-rendering:optimizeQuality; fill-rule:evenodd; clip-rule:evenodd"
viewBox="0 0 17563.35 15023.01"
 xmlns:xlink="http://www.w3.org/1999/xlink">
 <defs>
  <style type="text/css">
   <![CDATA[
    .fil0 {fill:none}
    .fil8 {fill:#414042}
    .fil3 {fill:#534B62}
    .fil5 {fill:#BDBDBD}
    .fil6 {fill:#CCCCCC}
    .fil4 {fill:#D6D6D6}
    .fil2 {fill:#F0F0F0}
    .fil7 {fill:white}
    .fil9 {fill:#1A1A1A;fill-rule:nonzero}
    .fil10 {fill:#4D4D4D;fill-rule:nonzero}
    .fil1 {fill:black;fill-opacity:0.360784}
   ]]>
  </style>
 </defs>
 <g id="Camada_x0020_1">
  <metadata id="CorelCorpID_0Corel-Layer"/>
  <g id="_842070392">
   <rect class="fil0" x="-0" y="-0" width="17563.35" height="15023.01"/>
   <g>
    <path class="fil1" d="M12505.36 8924.42c0,-126.11 -1714.7,-228.35 -3829.89,-228.35 -2115.19,0 -3829.89,102.24 -3829.89,228.35 0,126.1 1714.7,228.34 3829.89,228.34 2115.19,0 3829.89,-102.24 3829.89,-228.34z"/>
    <g>
     <g>
      <path class="fil2" d="M4979 6807.99l0 783.68c0,75.04 61.3,136.18 136.22,136.18l7199.24 0c75.01,0 136.23,-61.14 136.23,-136.18l0 -783.68 -7471.7 0z"/>
      <path class="fil3" d="M12450.71 2479.61c0,-74.96 -61.19,-136.22 -136.23,-136.22l-7199.24 0c-74.96,0 -136.26,61.26 -136.26,136.22l0 4328.38 7471.74 0 0 -4328.38z"/>
      <rect class="fil4" x="7445.66" y="7727.85" width="2569.93" height="788.98"/>
      <rect class="fil2" x="6828.1" y="8516.87" width="3769.8" height="369.36"/>
      <rect class="fil5" x="7445.66" y="7727.85" width="2569.93" height="285.17"/>
      <rect class="fil6" x="5365.26" y="2732.03" width="6700.64" height="3676.65"/>
     </g>
     <g>
      <polygon class="fil3" points="8004.65,3453.21 7538.38,3919.52 7072.13,3453.21 6885.6,3639.75 7351.86,4106.04 6885.6,4572.31 7072.13,4758.83 7538.38,4292.61 8004.65,4758.83 8191.17,4572.31 7724.92,4106.04 8191.17,3639.75 "/>
      <polygon class="fil3" points="10544.07,3639.75 10357.55,3453.21 9891.29,3919.52 9425.02,3453.21 9238.5,3639.75 9704.76,4106.04 9238.5,4572.31 9425.02,4758.83 9891.29,4292.61 10357.55,4758.83 10544.07,4572.31 10077.81,4106.04 "/>
     </g>
     <g>
      <path class="fil3" d="M9713.68 5897.93c-986.71,-681.3 -1986.19,-6.91 -1996.25,0l-129.36 -187.43c11.23,-7.78 1140.5,-769.59 2254.96,0l-129.36 187.43z"/>
     </g>
    </g>
    <g>
     <path class="fil7" d="M14797.41 735.89l-3378.19 0c-83.85,0 -151.83,67.98 -151.83,151.83l0 2181.7c0,83.86 67.98,151.83 151.83,151.83l391.15 0.01 -384.88 729.62 1298.9 -729.62 2073.03 0c83.85,0 151.83,-67.98 151.83,-151.83l0 -2181.71c0,-83.85 -67.98,-151.83 -151.83,-151.83z"/>
     <g>
      <g>
       <path class="fil8" d="M12316.87 2135.53c-10.1,0 -18.76,-3.65 -26.04,-10.96 -7.32,-7.25 -10.96,-15.94 -10.96,-26.04l0 -165.68 -424.52 0c-10.1,0 -18.76,-3.65 -26.04,-10.93 -7.32,-7.29 -10.96,-15.98 -10.96,-26.04l0 -97.25c0,-12.75 2.95,-23.95 8.89,-33.55 5.91,-9.6 12.97,-19.85 21.21,-30.83l419.09 -523.09c18.21,-22.84 36.93,-34.23 56.09,-34.23l104.08 0c10.02,0 18.68,3.65 26,10.93 7.25,7.29 10.96,15.98 10.96,26.03l0 547.76 117.74 0c10.02,0 18.68,3.69 26.04,10.97 7.25,7.32 10.96,15.97 10.96,26.03l0 97.25c0,10.06 -3.72,18.71 -10.96,26.04 -7.33,7.29 -16.02,10.92 -26.04,10.92l-117.74 0 0 165.69c0,10.09 -3.72,18.76 -10.96,26.03 -7.33,7.33 -16.02,10.97 -26,10.97l-110.83 0 0 -0.04zm-37.01 -373.84l0 -293.07 -234.2 293.07 234.2 0z"/>
       <path class="fil8" d="M13478.01 1534.4c0.95,17.35 1.4,36.51 1.4,57.55 0,20.98 0,42.43 0,64.33 0,21.9 0,43.38 0,64.34 0,21.02 -0.45,40.2 -1.4,57.54 -2.73,52.95 -10.75,102.03 -23.95,147.2 -13.28,45.21 -34.23,84.49 -63.01,117.78 -28.69,33.36 -66.19,59.36 -112.24,78.08 -46.12,18.67 -102.53,28.08 -169.1,28.08 -67.61,0 -124.2,-9.41 -169.86,-28.08 -45.66,-18.68 -82.9,-44.71 -111.55,-78.08 -28.78,-33.29 -49.84,-72.58 -63.01,-117.78 -13.28,-45.17 -21.22,-94.25 -23.95,-147.2 -1.86,-34.69 -2.73,-74.17 -2.73,-118.46 0,-44.25 0.87,-83.73 2.73,-118.47 2.73,-52.95 10.67,-102.45 23.95,-148.56 13.21,-46.08 34.23,-86.04 63.01,-119.79 28.69,-33.78 65.9,-60.51 111.55,-80.13 45.67,-19.62 102.22,-29.41 169.86,-29.41 66.57,0 122.97,9.37 169.1,28.08 46.04,18.68 83.54,44.71 112.24,78.08 28.78,33.29 49.73,72.58 63.01,117.74 13.2,45.13 21.21,94.22 23.95,147.16zm-551.85 236.9c4.59,65.7 20.31,116.64 47.3,152.67 26.91,36.09 72.27,54.13 136.26,54.13 63.85,0 109.28,-18.03 136.18,-54.13 26.99,-36.02 42.7,-86.96 47.3,-152.67 1.79,-34.66 2.74,-73.03 2.74,-115.01 0,-41.94 -0.95,-80.32 -2.74,-115.04 -4.59,-65.71 -20.31,-116.61 -47.3,-152.64 -26.91,-36.05 -72.34,-54.13 -136.18,-54.13 -64,0 -109.35,18.07 -136.26,54.13 -26.99,36.02 -42.7,86.96 -47.3,152.64 -1.87,34.72 -2.74,73.1 -2.74,115.04 0,41.98 0.91,80.35 2.74,115.01z"/>
       <path class="fil8" d="M14095.65 2135.53c-10.09,0 -18.67,-3.65 -26.03,-10.96 -7.33,-7.25 -10.97,-15.94 -10.97,-26.04l0 -165.68 -424.52 0c-10.09,0 -18.67,-3.65 -26.03,-10.93 -7.33,-7.29 -10.97,-15.98 -10.97,-26.04l0 -97.25c0,-12.75 2.96,-23.95 8.89,-33.55 5.92,-9.6 13.06,-19.85 21.29,-30.83l419.01 -523.09c18.22,-22.84 37.01,-34.23 56.14,-34.23l104.08 0c10.09,0 18.75,3.65 26.03,10.93 7.33,7.29 10.97,15.98 10.97,26.03l0 547.76 117.78 0c10.02,0 18.67,3.69 26.03,10.97 7.26,7.32 10.89,15.97 10.89,26.03l0 97.25c0,10.06 -3.64,18.71 -10.89,26.04 -7.32,7.29 -16.01,10.92 -26.03,10.92l-117.78 0 0 165.69c0,10.09 -3.65,18.76 -10.97,26.03 -7.25,7.33 -15.94,10.97 -26.03,10.97l-110.88 0 0 -0.04zm-37.01 -373.84l0 -293.07 -234.12 293.07 234.12 0z"/>
      </g>
      <g>
       <path class="fil8" d="M12390.69 2703.41c3.91,0 7.25,1.41 10.17,4.29 2.88,2.8 4.29,6.22 4.29,10.17l0 19.28c0,3.95 -1.41,7.32 -4.29,10.25 -2.88,2.81 -6.22,4.25 -10.17,4.25l-216.54 0c-3.95,0 -7.32,-1.44 -10.25,-4.25 -2.81,-2.88 -4.21,-6.26 -4.21,-10.25l0 -346.22c0,-3.95 1.4,-7.32 4.21,-10.25 2.88,-2.81 6.3,-4.25 10.25,-4.25l212.26 0.01c3.91,0 7.32,1.44 10.17,4.25 2.88,2.88 4.28,6.29 4.28,10.25l0 19.28c0,3.95 -1.4,7.33 -4.28,10.17 -2.81,2.88 -6.22,4.29 -10.17,4.29l-175.86 0 0 113.1 164.05 0c3.95,0 7.33,1.41 10.17,4.25 2.88,2.84 4.29,6.26 4.29,10.22l0 19.28c0,3.94 -1.41,7.32 -4.29,10.21 -2.8,2.84 -6.22,4.29 -10.17,4.29l-164.05 -0.01 0 117.4 180.14 0 0 -0.04z"/>
       <path class="fil8" d="M12674.68 2376.44c17.57,0 34.09,2.13 49.61,6.42 15.57,4.28 29.23,10.89 40.99,19.85 11.81,8.89 21.22,20.35 28.16,34.27 6.99,13.93 10.44,30.75 10.44,50.37 0,28.96 -7.25,52 -21.71,69.16 -14.46,17.12 -32.99,29.26 -55.46,36.44l80.89 140.98c1.09,2.17 1.63,4.1 1.63,5.87 0,3.23 -1.17,5.96 -3.49,8.32 -2.33,2.36 -5.13,3.49 -8.32,3.49l-23.03 0c-7.14,0 -12.37,-1.79 -15.79,-5.39 -3.42,-3.57 -5.77,-6.6 -7.25,-9.11l-77.7 -136.68 -92.24 -0.01 0 136.68c0,3.95 -1.4,7.33 -4.21,10.25 -2.88,2.81 -6.3,4.25 -10.25,4.25l-21.93 0c-3.91,0 -7.33,-1.44 -10.26,-4.25 -2.8,-2.88 -4.21,-6.26 -4.21,-10.25l0 -346.21c0,-3.95 1.41,-7.33 4.21,-10.26 2.88,-2.8 6.3,-4.24 10.26,-4.24l129.65 0 0 0.04zm-93.26 175.83l90.61 0c25.73,0 45.66,-5.13 59.74,-15.26 14.16,-10.22 21.22,-26.72 21.22,-49.61 0,-22.85 -7.07,-39.03 -21.22,-48.47 -14.09,-9.49 -34.02,-14.23 -59.74,-14.23l-90.61 0 0 127.58z"/>
       <path class="fil8" d="M13077.26 2376.44c17.56,0 34.09,2.13 49.61,6.42 15.56,4.28 29.22,10.89 40.98,19.85 11.81,8.89 21.22,20.35 28.16,34.27 6.99,13.93 10.44,30.75 10.44,50.37 0,28.96 -7.25,52 -21.71,69.16 -14.45,17.12 -32.99,29.26 -55.46,36.44l80.89 140.98c1.09,2.17 1.63,4.1 1.63,5.87 0,3.23 -1.17,5.96 -3.49,8.32 -2.28,2.36 -5.13,3.49 -8.32,3.49l-23.02 0c-7.14,0 -12.37,-1.79 -15.79,-5.39 -3.41,-3.57 -5.77,-6.6 -7.25,-9.11l-77.7 -136.68 -92.24 -0.01 0 136.68c0,3.95 -1.4,7.33 -4.21,10.25 -2.88,2.81 -6.3,4.25 -10.25,4.25l-21.94 0c-3.91,0 -7.33,-1.44 -10.25,-4.25 -2.81,-2.88 -4.21,-6.26 -4.21,-10.25l0 -346.21c0,-3.95 1.4,-7.33 4.21,-10.26 2.88,-2.8 6.29,-4.24 10.25,-4.24l129.66 0 0 0.04zm-93.26 175.83l90.61 0c25.73,0 45.66,-5.13 59.74,-15.26 14.16,-10.22 21.22,-26.72 21.22,-49.61 0,-22.85 -7.07,-39.03 -21.22,-48.47 -14.09,-9.49 -34.05,-14.23 -59.74,-14.23l-90.61 0 0 127.58z"/>
       <path class="fil8" d="M13321.67 2516.36c0.38,-20 3.87,-38.87 10.44,-56.52 6.6,-17.72 16.16,-33.06 28.69,-46.11 12.52,-13.06 27.86,-23.42 46.11,-31.09 18.18,-7.66 39.06,-11.53 62.7,-11.53 23.58,0 44.49,3.87 62.63,11.53 18.21,7.67 33.59,18.07 46.11,31.09 12.52,13.06 22.1,28.39 28.69,46.11 6.61,17.65 10.1,36.52 10.45,56.52 1.09,31.81 1.09,63.62 0,95.43 -0.77,20 -4.36,38.87 -10.97,56.51 -6.6,17.72 -16.17,33.14 -28.69,46.42 -12.52,13.21 -27.79,23.58 -45.83,31.04 -18.1,7.49 -38.83,11.28 -62.44,11.28 -23.65,0 -44.41,-3.8 -62.49,-11.28 -18.02,-7.48 -33.28,-17.87 -45.82,-31.04 -12.52,-13.28 -22.1,-28.69 -28.69,-46.42 -6.61,-17.64 -10.26,-36.51 -10.97,-56.51 -0.96,-31.85 -0.96,-63.62 0.06,-95.43zm244.94 2.69c-0.77,-16.81 -3.49,-31.46 -8.32,-43.96 -4.82,-12.52 -11.5,-22.88 -20.08,-31.08 -8.61,-8.24 -18.67,-14.38 -30.25,-18.49 -11.66,-4.07 -24.4,-6.15 -38.34,-6.15 -13.93,0 -26.76,2.09 -38.34,6.15 -11.65,4.11 -21.71,10.29 -30.33,18.49 -8.61,8.23 -15.33,18.56 -20.38,31.08 -4.97,12.49 -7.63,27.14 -8.01,43.96 -0.77,16.06 -1.1,31.05 -1.1,45.02 0,13.98 0.39,28.97 1.1,45.02 0.38,16.81 3.03,31.46 8.01,43.96 5.05,12.52 11.77,22.88 20.38,31.09 8.62,8.23 18.68,14.38 30.33,18.48 11.58,4.11 24.4,6.15 38.34,6.15 13.93,0 26.68,-2.05 38.34,-6.15 11.57,-4.1 21.64,-10.29 30.25,-18.48 8.62,-8.2 15.26,-18.56 20.08,-31.09 4.82,-12.49 7.55,-27.14 8.32,-43.96 0.73,-16.05 1.09,-31.04 1.09,-45.02 0,-13.97 -0.34,-28.97 -1.09,-45.02z"/>
       <path class="fil8" d="M13893.57 2376.44c17.57,0 34.09,2.13 49.61,6.42 15.57,4.28 29.22,10.89 40.99,19.85 11.8,8.89 21.21,20.35 28.16,34.27 6.98,13.93 10.44,30.75 10.44,50.37 0,28.96 -7.29,52 -21.72,69.16 -14.45,17.12 -32.98,29.26 -55.46,36.44l80.89 140.98c1.1,2.17 1.63,4.1 1.63,5.87 0,3.23 -1.17,5.96 -3.49,8.32 -2.32,2.36 -5.13,3.49 -8.32,3.49l-23.02 0c-7.14,0 -12.38,-1.79 -15.79,-5.39 -3.42,-3.57 -5.78,-6.6 -7.26,-9.11l-77.69 -136.68 -92.24 -0.01 0 136.68c0,3.95 -1.41,7.33 -4.21,10.25 -2.89,2.81 -6.3,4.25 -10.26,4.25l-21.93 0c-3.91,0 -7.32,-1.44 -10.25,-4.25 -2.81,-2.88 -4.21,-6.26 -4.21,-10.25l0 -346.21c0,-3.95 1.4,-7.33 4.21,-10.26 2.88,-2.8 6.3,-4.24 10.25,-4.24l129.66 0 0 0.04zm-93.26 175.83l90.6 0c25.74,0 45.67,-5.13 59.75,-15.26 14.16,-10.22 21.21,-26.72 21.21,-49.61 0,-22.85 -7.06,-39.03 -21.21,-48.47 -14.09,-9.49 -34.06,-14.23 -59.75,-14.23l-90.6 0 0 127.58z"/>
      </g>
     </g>
    </g>
    <path class="fil9" d="M740.2 11292.08l0 -848.3 274.66 0c104.07,0 171.79,4.15 203.39,12.63 48.57,12.84 89.25,40.49 122.03,83.13 32.77,42.65 49.17,97.74 49.17,165.28 0,52.13 -9.47,95.77 -28.23,131.31 -18.96,35.54 -42.85,63.38 -71.88,83.72 -29.03,20.15 -58.65,33.57 -88.66,40.09 -40.88,8.09 -99.92,12.25 -177.33,12.25l-111.36 0 0 319.88 -171.79 0zm171.79 -704.94l0 241.69 93.4 0c67.33,0 112.16,-4.54 134.86,-13.43 22.71,-8.89 40.48,-22.7 53.32,-41.86 12.83,-18.96 19.34,-40.88 19.34,-66.15 0,-31 -9.09,-56.47 -27.05,-76.61 -18.17,-20.14 -40.88,-32.78 -68.72,-37.91 -20.34,-3.76 -61.21,-5.73 -122.82,-5.73l-82.34 0z"/>
    <path id="1" class="fil9" d="M2294.61 11292.08l-185.02 0 -73.26 -193.11 -340.22 0 -70.5 193.11 -181.66 0 329.37 -848.3 181.46 0 339.83 848.3zm-313.96 -336.47l-117.88 -313.97 -114.53 313.97 232.42 0zm-178.91 -588.83l80.57 -172.97 181.27 0 -159.94 172.97 -101.9 0z"/>
    <path id="2" class="fil9" d="M2780.57 10980.48l0 -143.36 368.46 0 0 338.45c-35.74,34.95 -87.67,65.56 -155.8,92.22 -67.92,26.46 -136.84,39.68 -206.74,39.68 -88.66,0 -165.87,-18.56 -231.82,-55.88 -65.76,-37.33 -115.32,-90.84 -148.49,-160.14 -33.17,-69.31 -49.76,-144.94 -49.76,-226.49 0,-88.46 18.56,-167.05 55.49,-235.97 37.12,-68.72 91.22,-121.64 162.51,-158.36 54.5,-28.24 122.04,-42.26 202.99,-42.26 105.25,0 187.59,22.12 246.83,66.34 59.04,44.43 97.15,105.45 114.13,183.64l-170.61 31.99c-11.84,-41.66 -34.35,-74.64 -67.33,-98.93 -32.78,-24.09 -73.86,-36.13 -123.22,-36.13 -74.64,0 -134.08,23.7 -178.11,71.28 -44.03,47.58 -66.14,118.08 -66.14,211.48 0,100.91 22.32,176.53 66.94,226.88 44.82,50.36 103.27,75.63 175.74,75.63 35.75,0 71.68,-7.11 107.62,-21.12 36.14,-14.03 66.95,-31.2 92.81,-51.34l0 -107.62 -195.49 0z"/>
    <polygon id="3" class="fil9" points="3301.68,11292.08 3301.68,10443.78 3473.47,10443.78 3473.47,11292.08 "/>
    <polygon id="4" class="fil9" points="3636.77,11292.08 3636.77,10443.78 3803.04,10443.78 4152.15,11012.27 4152.15,10443.78 4310.91,10443.78 4310.91,11292.08 4139.31,11292.08 3795.53,10734.45 3795.53,11292.08 "/>
    <path id="5" class="fil9" d="M5256.55 11292.08l-185.02 0 -73.26 -193.11 -340.22 0 -70.5 193.11 -181.66 0 329.37 -848.3 181.46 0 339.83 848.3zm-313.96 -336.47l-117.88 -313.97 -114.53 313.97 232.42 0z"/>
    <polygon id="6" class="fil9" points="5633.12,11292.08 5633.12,10443.78 5799.38,10443.78 6148.49,11012.27 6148.49,10443.78 6307.25,10443.78 6307.25,11292.08 6135.66,11292.08 5791.87,10734.45 5791.87,11292.08 "/>
    <path id="7" class="fil9" d="M7252.89 11292.08l-185.02 0 -73.26 -193.11 -340.22 0 -70.5 193.11 -181.66 0 329.37 -848.3 181.46 0 339.83 848.3zm-313.96 -336.47l-117.88 -313.97 -114.53 313.97 232.42 0zm-233.4 -587.65l-74.64 0c-0.4,-8.89 -0.6,-15.8 -0.6,-20.74 0,-40.48 9.88,-71.67 29.62,-93.4 19.55,-21.91 45.02,-32.77 75.83,-32.77 13.63,0 26.06,1.38 37.71,4.34 11.65,2.96 32.78,11.25 63.39,24.88 30.81,13.63 54.69,20.54 72.27,20.54 12.25,0 22.52,-3.95 30.81,-11.65 8.49,-7.9 13.63,-20.93 15.99,-39.29l74.64 0c-0.4,52.72 -10.07,90.24 -29.03,112.94 -19.16,22.71 -43.64,33.97 -73.66,33.97 -13.23,0 -26.06,-1.38 -38.7,-4.15 -8.89,-2.38 -31,-10.67 -66.35,-24.68 -35.54,-14.03 -61.21,-20.93 -77.41,-20.93 -12.44,0 -21.91,3.76 -28.83,11.45 -7.11,7.51 -10.66,20.74 -11.05,39.49z"/>
    <path id="8" class="fil9" d="M7308.78 10873.07c0,-86.49 13.03,-159.16 38.9,-218 19.16,-43.24 45.62,-82.15 78.99,-116.5 33.37,-34.35 69.9,-59.83 109.59,-76.61 52.92,-22.32 113.94,-33.57 183.04,-33.57 125.19,0 225.11,38.9 300.34,116.5 75.04,77.79 112.56,185.81 112.56,324.23 0,137.24 -37.32,244.65 -111.76,322.06 -74.44,77.61 -174.17,116.3 -298.76,116.3 -126.18,0 -226.69,-38.5 -301.14,-115.71 -74.44,-77.01 -111.76,-183.24 -111.76,-318.7zm176.53 -5.74c0,96.16 22.32,169.03 66.74,218.79 44.43,49.56 100.91,74.44 169.23,74.44 68.52,0 124.59,-24.68 168.63,-73.85 43.84,-49.36 65.76,-123.22 65.76,-221.75 0,-97.35 -21.32,-170.01 -64.18,-217.8 -42.65,-47.99 -99.33,-71.88 -170.21,-71.88 -70.7,0 -127.75,24.28 -171.01,72.66 -43.24,48.58 -64.96,121.64 -64.96,219.38z"/>
    <polygon id="9" class="fil9" points="8595.05,11292.08 8595.05,10443.78 9222.98,10443.78 9222.98,10587.14 8766.84,10587.14 8766.84,10775.51 9190.99,10775.51 9190.99,10918.87 8766.84,10918.87 8766.84,11148.72 9239.56,11148.72 9239.56,11292.08 "/>
    <polygon id="10" class="fil9" points="9385.3,11292.08 9385.3,10443.78 9551.56,10443.78 9900.67,11012.27 9900.67,10443.78 10059.43,10443.78 10059.43,11292.08 9887.84,11292.08 9544.06,10734.45 9544.06,11292.08 "/>
    <path id="11" class="fil9" d="M10783.52 10979.3l165.87 50.94c-25.47,93.4 -67.92,162.71 -127.16,208.12 -59.25,45.22 -134.28,67.92 -225.31,67.92 -112.74,0 -205.36,-38.5 -278.02,-115.51 -72.47,-77.02 -108.8,-182.26 -108.8,-315.95 0,-141.18 36.53,-250.97 109.39,-329.17 72.86,-78.19 168.83,-117.29 287.7,-117.29 103.87,0 188.18,30.81 252.95,92.21 38.7,36.33 67.53,88.47 86.88,156.59l-169.43 40.28c-10.07,-43.84 -30.99,-78.59 -62.79,-104.06 -31.99,-25.48 -70.69,-38.11 -116.1,-38.11 -62.99,0 -114.14,22.51 -153.23,67.72 -39.29,45.02 -58.84,118.08 -58.84,219.19 0,107.03 19.34,183.44 57.85,228.86 38.7,45.62 88.86,68.32 150.67,68.32 45.61,0 84.9,-14.41 117.69,-43.44 32.77,-29.03 56.47,-74.44 70.69,-136.64z"/>
    <path id="12" class="fil9" d="M11060.96 10873.07c0,-86.49 13.03,-159.16 38.9,-218 19.16,-43.24 45.62,-82.15 78.99,-116.5 33.37,-34.35 69.9,-59.83 109.59,-76.61 52.92,-22.32 113.94,-33.57 183.04,-33.57 125.19,0 225.11,38.9 300.34,116.5 75.04,77.79 112.56,185.81 112.56,324.23 0,137.24 -37.32,244.65 -111.76,322.06 -74.44,77.61 -174.17,116.3 -298.76,116.3 -126.18,0 -226.69,-38.5 -301.14,-115.71 -74.44,-77.01 -111.76,-183.24 -111.76,-318.7zm176.53 -5.74c0,96.16 22.32,169.03 66.74,218.79 44.43,49.56 100.91,74.44 169.23,74.44 68.52,0 124.59,-24.68 168.63,-73.85 43.84,-49.36 65.76,-123.22 65.76,-221.75 0,-97.35 -21.32,-170.01 -64.18,-217.8 -42.65,-47.99 -99.33,-71.88 -170.21,-71.88 -70.7,0 -127.75,24.28 -171.01,72.66 -43.24,48.58 -64.96,121.64 -64.96,219.38z"/>
    <polygon id="13" class="fil9" points="12018.07,11292.08 12018.07,10443.78 12184.33,10443.78 12533.44,11012.27 12533.44,10443.78 12692.2,10443.78 12692.2,11292.08 12520.61,11292.08 12176.83,10734.45 12176.83,11292.08 "/>
    <polygon id="14" class="fil9" points="13064.42,11292.08 13064.42,10587.14 12813.24,10587.14 12813.24,10443.78 13486.19,10443.78 13486.19,10587.14 13236.21,10587.14 13236.21,11292.08 "/>
    <path id="15" class="fil9" d="M13597.37 11292.08l0 -848.3 360.76 0c90.64,0 156.59,7.7 197.66,22.9 41.27,15.21 74.06,42.26 98.74,81.16 24.68,39.1 37.12,83.52 37.12,133.68 0,63.78 -18.56,116.3 -55.88,157.77 -37.33,41.46 -93.01,67.53 -167.26,78.39 36.93,21.52 67.34,45.22 91.23,71.08 24.09,25.87 56.47,71.88 97.15,137.83l103.47 165.47 -204.76 0 -122.82 -185.22c-44.04,-65.76 -74.25,-107.22 -90.64,-124.4 -16.19,-16.98 -33.37,-28.83 -51.54,-35.14 -18.36,-6.32 -47.19,-9.48 -86.68,-9.48l-34.75 0 0 354.25 -171.79 0zm171.79 -489.31l126.77 0c82.14,0 133.28,-3.56 153.82,-10.47 20.34,-6.91 36.53,-18.96 47.98,-35.93 11.65,-16.99 17.38,-38.31 17.38,-63.79 0,-28.63 -7.69,-51.53 -22.9,-69.3 -15.2,-17.57 -36.73,-28.63 -64.37,-33.17 -14.02,-1.98 -55.69,-2.96 -124.99,-2.96l-133.68 0 0 215.63z"/>
    <path id="16" class="fil9" d="M15217.14 11292.08l-185.02 0 -73.26 -193.11 -340.22 0 -70.5 193.11 -181.66 0 329.37 -848.3 181.46 0 339.83 848.3zm-313.96 -336.47l-117.88 -313.97 -114.53 313.97 232.42 0z"/>
    <path id="17" class="fil9" d="M15308.58 10443.78l312.38 0c70.5,0 124.21,5.33 161.13,16.19 49.56,14.61 92.21,40.68 127.56,78.19 35.55,37.33 62.4,83.13 80.96,137.44 18.36,54.11 27.64,121.04 27.64,200.42 0,69.91 -8.69,129.93 -26.06,180.49 -21.13,61.8 -51.34,111.76 -90.64,149.87 -29.62,29.03 -69.7,51.53 -120.06,67.72 -37.71,12.05 -88.06,17.97 -151.25,17.97l-321.66 0 0 -848.3zm171.79 143.36l0 561.58 127.36 0c47.59,0 81.95,-2.76 103.08,-8.09 27.84,-6.91 50.75,-18.76 68.91,-35.35 18.37,-16.58 33.18,-43.84 44.63,-81.75 11.65,-37.91 17.38,-89.84 17.38,-155.4 0,-65.56 -5.73,-115.72 -17.38,-150.87 -11.45,-35.14 -27.64,-62.4 -48.38,-82.14 -20.74,-19.55 -47,-32.98 -78.99,-39.89 -23.7,-5.33 -70.5,-8.09 -140,-8.09l-76.61 0z"/>
    <path id="18" class="fil9" d="M16928.35 11292.08l-185.02 0 -73.26 -193.11 -340.22 0 -70.5 193.11 -181.66 0 329.37 -848.3 181.46 0 339.83 848.3zm-313.96 -336.47l-117.88 -313.97 -114.53 313.97 232.42 0z"/>
    <path class="fil10" d="M4656.6 12849.27c0,-61.44 9.25,-113.05 27.63,-154.86 13.6,-30.72 32.4,-58.35 56.1,-82.75 23.71,-24.41 49.65,-42.51 77.85,-54.42 37.59,-15.86 80.94,-23.85 130.03,-23.85 88.93,0 159.91,27.63 213.35,82.75 53.3,55.27 79.95,132 79.95,230.33 0,97.49 -26.51,173.8 -79.39,228.78 -52.88,55.13 -123.72,82.63 -212.23,82.63 -89.63,0 -161.03,-27.36 -213.91,-82.2 -52.88,-54.71 -79.39,-130.18 -79.39,-226.4zm125.4 -4.07c0,68.31 15.86,120.07 47.42,155.42 31.56,35.21 71.67,52.88 120.21,52.88 48.67,0 88.51,-17.53 119.79,-52.47 31.14,-35.06 46.71,-87.53 46.71,-157.52 0,-69.16 -15.15,-120.78 -45.59,-154.72 -30.3,-34.09 -70.56,-51.06 -120.92,-51.06 -50.22,0 -90.76,17.26 -121.47,51.62 -30.73,34.51 -46.15,86.41 -46.15,155.85z"/>
    <path id="1" class="fil10" d="M5949.9 12839.74l-113.63 20.2c-3.79,-22.58 -12.48,-39.56 -26.08,-51.06 -13.61,-11.36 -31.14,-17.11 -52.74,-17.11 -28.76,0 -51.76,9.95 -68.88,29.87 -17.11,19.92 -25.67,53.16 -25.67,99.87 0,51.9 8.7,88.52 26.09,109.98 17.4,21.46 40.68,32.12 69.85,32.12 21.88,0 39.84,-6.31 53.73,-18.8 14.03,-12.49 23.85,-33.95 29.59,-64.52l113.62 19.35c-11.78,52.19 -34.36,91.6 -67.75,118.25 -33.38,26.65 -78.12,39.98 -134.38,39.98 -63.68,0 -114.6,-20.2 -152.48,-60.46 -38.01,-40.4 -56.95,-96.23 -56.95,-167.63 0,-72.24 19.08,-128.35 57.09,-168.61 38.01,-40.26 89.49,-60.32 154.44,-60.32 53.02,0 95.24,11.51 126.66,34.37 31.28,22.86 53.73,57.64 67.48,104.5z"/>
    <path id="2" class="fil10" d="M6010.63 12923.2c0,-38.44 9.39,-75.61 28.33,-111.52 18.94,-36.04 45.73,-63.4 80.38,-82.34 34.64,-18.94 73.22,-28.48 116.01,-28.48 66.06,0 120.07,21.46 162.29,64.39 42.23,43.06 63.27,97.21 63.27,162.85 0,66.2 -21.32,121.05 -63.83,164.53 -42.64,43.48 -96.22,65.23 -160.9,65.23 -39.97,0 -78.12,-9.13 -114.45,-27.22 -36.19,-18.09 -63.83,-44.6 -82.76,-79.67 -18.94,-34.93 -28.33,-77.58 -28.33,-127.78zm118.67 6.17c0,43.34 10.24,76.58 30.72,99.59 20.62,23.14 45.87,34.64 76.02,34.64 30.02,0 55.27,-11.5 75.61,-34.64 20.34,-23.01 30.58,-56.53 30.58,-100.44 0,-42.78 -10.24,-75.75 -30.58,-98.75 -20.34,-23.15 -45.59,-34.65 -75.61,-34.65 -30.16,0 -55.41,11.5 -76.02,34.65 -20.48,23 -30.72,56.24 -30.72,99.59z"/>
    <path id="3" class="fil10" d="M6948.9 13146.93l-115.31 0 0 -222.61c0,-47.14 -2.52,-77.58 -7.43,-91.32 -5.05,-13.89 -13.05,-24.54 -24.27,-32.26 -11.22,-7.71 -24.68,-11.5 -40.4,-11.5 -20.2,0 -38.29,5.47 -54.28,16.41 -16.12,10.93 -27.07,25.53 -32.96,43.48 -6.03,18.09 -8.98,51.48 -8.98,100.29l0 197.51 -115.3 0 0 -436.8 106.88 0 0 64.11c38.3,-48.96 86.41,-73.37 144.62,-73.37 25.53,0 48.96,4.63 70.14,13.75 21.31,9.26 37.31,20.9 48.11,35.07 10.93,14.31 18.51,30.44 22.72,48.54 4.34,18.09 6.45,43.9 6.45,77.57l0 271.15z"/>
    <path id="4" class="fil10" d="M7265.21 12710.12l0 91.74 -79.12 0 0 176.88c0,35.9 0.71,56.81 2.25,62.69 1.54,5.89 4.91,10.81 10.38,14.73 5.34,3.79 11.79,5.76 19.5,5.76 10.8,0 26.23,-3.65 46.57,-11.08l9.67 89.77c-26.79,11.5 -57.09,17.26 -91.03,17.26 -20.76,0 -39.41,-3.51 -56.1,-10.53 -16.69,-7.01 -28.9,-16.12 -36.61,-27.21 -7.85,-11.22 -13.19,-26.23 -16.27,-45.31 -2.39,-13.47 -3.65,-40.68 -3.65,-81.78l0 -191.18 -53.02 0 0 -91.74 53.02 0 0 -86.69 115.3 -68.17 0 154.86 79.12 0z"/>
    <path id="5" class="fil10" d="M7598.49 13008.9l115.31 19.35c-14.73,42.22 -38.16,74.34 -70,96.5 -31.98,22.03 -71.96,33.11 -119.79,33.11 -75.89,0 -132.14,-24.83 -168.46,-74.48 -28.76,-39.84 -43.21,-90.06 -43.21,-150.8 0,-72.38 18.94,-129.19 56.67,-170.15 37.73,-41.09 85.57,-61.58 143.36,-61.58 64.8,0 116.01,21.46 153.6,64.39 37.45,42.92 55.41,108.71 53.72,197.36l-288.68 0c0.84,34.22 10.1,60.88 27.92,79.95 17.67,19.08 39.83,28.62 66.2,28.62 18.09,0 33.24,-4.91 45.45,-14.73 12.35,-9.81 21.6,-25.67 27.91,-47.55zm6.73 -116.99c-0.83,-33.53 -9.39,-59.06 -25.81,-76.45 -16.41,-17.53 -36.33,-26.22 -59.89,-26.22 -25.11,0 -45.88,9.25 -62.29,27.62 -16.41,18.38 -24.4,43.49 -24.13,75.05l172.11 0z"/>
    <path id="6" class="fil10" d="M8102.77 13146.93l0 -65.37c-15.99,23.29 -36.89,41.8 -62.84,55.69 -25.95,13.75 -53.3,20.63 -82.06,20.63 -29.45,0 -55.83,-6.45 -79.12,-19.36 -23.42,-12.9 -40.26,-31.13 -50.64,-54.42 -10.52,-23.42 -15.71,-55.69 -15.71,-96.93l0 -277.03 115.3 0 0 201.15c0,61.58 2.11,99.18 6.45,113.06 4.21,13.89 11.93,24.97 23.29,32.96 11.22,8.13 25.53,12.21 42.92,12.21 19.77,0 37.45,-5.48 53.16,-16.27 15.71,-10.81 26.37,-24.26 32.12,-40.4 5.76,-16.13 8.7,-55.41 8.7,-118.11l0 -184.59 115.31 0 0 436.8 -106.89 0zm-152.34 -493.2l57.23 -122.87 128.77 0 -113.62 122.87 -72.38 0z"/>
    <path id="7" class="fil10" d="M8728.8 13146.93l-106.89 0 0 -64.11c-17.81,24.97 -39,43.63 -63.26,56.25 -24.27,12.49 -48.82,18.8 -73.51,18.8 -50.35,0 -93.42,-20.2 -129.33,-60.74 -35.77,-40.55 -53.73,-96.93 -53.73,-169.45 0,-74.06 17.4,-130.45 52.33,-169.03 34.92,-38.57 78.97,-57.79 132.28,-57.79 48.81,0 91.17,20.35 126.8,60.89l0 -217.43 115.31 0 0 602.61zm-308.04 -226.82c0,46.71 6.46,80.52 19.22,101.42 18.65,30.3 44.6,45.45 77.98,45.45 26.51,0 49.1,-11.36 67.61,-34.09 18.66,-22.72 27.91,-56.53 27.91,-101.7 0,-50.36 -8.98,-86.55 -27.07,-108.71 -18.1,-22.17 -41.1,-33.24 -69.29,-33.24 -27.36,0 -50.22,10.93 -68.74,32.82 -18.37,21.88 -27.63,54.56 -27.63,98.04z"/>
    <path id="8" class="fil10" d="M8815.34 12923.2c0,-38.44 9.39,-75.61 28.33,-111.52 18.94,-36.04 45.73,-63.4 80.38,-82.34 34.64,-18.94 73.22,-28.48 116.01,-28.48 66.06,0 120.07,21.46 162.29,64.39 42.23,43.06 63.27,97.21 63.27,162.85 0,66.2 -21.32,121.05 -63.83,164.53 -42.64,43.48 -96.22,65.23 -160.9,65.23 -39.97,0 -78.12,-9.13 -114.45,-27.22 -36.19,-18.09 -63.83,-44.6 -82.76,-79.67 -18.94,-34.93 -28.33,-77.58 -28.33,-127.78zm118.67 6.17c0,43.34 10.24,76.58 30.72,99.59 20.62,23.14 45.87,34.64 76.02,34.64 30.02,0 55.27,-11.5 75.61,-34.64 20.34,-23.01 30.58,-56.53 30.58,-100.44 0,-42.78 -10.24,-75.75 -30.58,-98.75 -20.34,-23.15 -45.59,-34.65 -75.61,-34.65 -30.16,0 -55.41,11.5 -76.02,34.65 -20.48,23 -30.72,56.24 -30.72,99.59z"/>
    <path id="9" class="fil10" d="M9585.14 13146.93l0 -602.61 115.3 0 0 217.43c35.64,-40.54 77.71,-60.89 126.53,-60.89 53.16,0 97.07,19.22 131.85,57.79 34.79,38.58 52.19,93.99 52.19,166.22 0,74.62 -17.67,132.14 -53.17,172.54 -35.49,40.26 -78.69,60.46 -129.33,60.46 -24.97,0 -49.51,-6.45 -73.79,-19.22 -24.26,-12.9 -45.16,-31.41 -62.69,-55.83l0 64.11 -106.89 0zm113.62 -226.82c0,45.31 7.16,78.98 21.46,100.58 20.06,30.86 46.57,46.29 79.81,46.29 25.54,0 47.28,-10.94 65.37,-32.82 17.95,-21.89 26.93,-56.39 26.93,-103.38 0,-50.08 -9.12,-86.13 -27.21,-108.29 -18.09,-22.17 -41.24,-33.24 -69.57,-33.24 -27.77,0 -50.78,10.8 -69.16,32.4 -18.38,21.6 -27.63,54.42 -27.63,98.47z"/>
    <path id="10" class="fil10" d="M10392.96 13146.93l0 -65.37c-15.99,23.29 -36.89,41.8 -62.84,55.69 -25.95,13.75 -53.3,20.63 -82.06,20.63 -29.45,0 -55.83,-6.45 -79.12,-19.36 -23.42,-12.9 -40.26,-31.13 -50.64,-54.42 -10.52,-23.42 -15.71,-55.69 -15.71,-96.93l0 -277.03 115.3 0 0 201.15c0,61.58 2.11,99.18 6.45,113.06 4.21,13.89 11.93,24.97 23.29,32.96 11.22,8.13 25.53,12.21 42.92,12.21 19.77,0 37.45,-5.48 53.16,-16.27 15.71,-10.81 26.37,-24.26 32.12,-40.4 5.76,-16.13 8.7,-55.41 8.7,-118.11l0 -184.59 115.31 0 0 436.8 -106.89 0z"/>
    <path id="11" class="fil10" d="M10577.13 13024.05l116.14 -17.67c4.91,22.3 14.87,39.27 30.02,50.78 15.01,11.64 36.19,17.4 63.26,17.4 29.88,0 52.33,-5.48 67.48,-16.41 10.1,-7.71 15.15,-18.1 15.15,-31 0,-8.7 -2.8,-15.99 -8.28,-21.74 -5.75,-5.48 -18.66,-10.67 -38.57,-15.29 -93.28,-20.63 -152.34,-39.42 -177.31,-56.39 -34.64,-23.71 -51.9,-56.53 -51.9,-98.47 0,-38.01 15.01,-69.85 44.89,-95.67 29.87,-25.81 76.16,-38.72 138.87,-38.72 59.75,0 104.22,9.82 133.25,29.32 29.04,19.63 49.1,48.53 60.04,86.83l-108.57 20.2c-4.63,-17.12 -13.61,-30.3 -26.65,-39.42 -13.05,-9.12 -31.7,-13.6 -55.97,-13.6 -30.58,0 -52.46,4.2 -65.79,12.76 -8.84,6.02 -13.18,13.89 -13.18,23.42 0,8.28 3.79,15.29 11.5,21.04 10.52,7.71 46.57,18.52 108.29,32.55 61.72,14.03 104.78,31.13 129.19,51.47 24.26,20.49 36.33,49.24 36.33,85.99 0,39.97 -16.69,74.48 -50.22,103.23 -33.38,28.76 -82.9,43.21 -148.55,43.21 -59.47,0 -106.6,-12.07 -141.39,-36.05 -34.64,-23.99 -57.37,-56.53 -68.03,-97.76z"/>
    <path id="12" class="fil10" d="M11466.88 12839.74l-113.63 20.2c-3.79,-22.58 -12.48,-39.56 -26.08,-51.06 -13.61,-11.36 -31.14,-17.11 -52.74,-17.11 -28.76,0 -51.76,9.95 -68.88,29.87 -17.11,19.92 -25.67,53.16 -25.67,99.87 0,51.9 8.7,88.52 26.09,109.98 17.4,21.46 40.68,32.12 69.85,32.12 21.88,0 39.84,-6.31 53.73,-18.8 14.03,-12.49 23.85,-33.95 29.59,-64.52l113.62 19.35c-11.78,52.19 -34.36,91.6 -67.75,118.25 -33.38,26.65 -78.12,39.98 -134.38,39.98 -63.68,0 -114.6,-20.2 -152.48,-60.46 -38.01,-40.4 -56.95,-96.23 -56.95,-167.63 0,-72.24 19.08,-128.35 57.09,-168.61 38.01,-40.26 89.49,-60.32 154.44,-60.32 53.02,0 95.24,11.51 126.66,34.37 31.28,22.86 53.73,57.64 67.48,104.5z"/>
    <path id="13" class="fil10" d="M11640.39 12844.79l-104.36 -18.52c11.79,-42.64 32.13,-74.21 60.89,-94.68 28.75,-20.48 71.53,-30.73 128.2,-30.73 51.48,0 89.91,6.03 115.16,18.24 25.11,12.21 42.92,27.63 53.17,46.43 10.24,18.8 15.43,53.16 15.43,103.38l-1.69 134.65c0,38.3 1.83,66.63 5.48,84.87 3.65,18.23 10.52,37.73 20.62,58.49l-114.46 0c-2.94,-7.57 -6.73,-18.8 -11.07,-33.67 -1.83,-6.87 -3.23,-11.36 -4.08,-13.46 -19.63,19.35 -40.68,33.8 -63.12,43.48 -22.44,9.68 -46.28,14.59 -71.67,14.59 -44.75,0 -80.1,-12.21 -105.91,-36.61 -25.82,-24.27 -38.72,-55.13 -38.72,-92.45 0,-24.54 5.89,-46.57 17.67,-65.93 11.78,-19.21 28.19,-34.09 49.51,-44.32 21.18,-10.24 51.76,-19.21 91.74,-26.93 53.87,-10.1 91.31,-19.64 112.08,-28.34l0 -11.64c0,-22.45 -5.48,-38.43 -16.41,-48.11 -11.08,-9.54 -31.84,-14.3 -62.29,-14.3 -20.62,0 -36.61,4.07 -48.11,12.34 -11.64,8.14 -20.89,22.58 -28.05,43.21zm154.86 93.42c-14.73,4.9 -38.15,10.8 -70.28,17.67 -31.98,6.87 -53.02,13.6 -62.84,20.05 -15.01,10.81 -22.58,24.27 -22.58,40.69 0,16.27 6.03,30.16 18.1,41.94 12.06,11.78 27.35,17.67 46,17.67 20.77,0 40.68,-6.87 59.61,-20.48 13.89,-10.53 23.15,-23.15 27.5,-38.3 2.95,-9.81 4.49,-28.61 4.49,-56.24l0 -23z"/>
    <path id="14" class="fil10" d="M12423.25 13146.93l-106.89 0 0 -64.11c-17.81,24.97 -39,43.63 -63.26,56.25 -24.27,12.49 -48.82,18.8 -73.51,18.8 -50.35,0 -93.42,-20.2 -129.33,-60.74 -35.77,-40.55 -53.73,-96.93 -53.73,-169.45 0,-74.06 17.4,-130.45 52.33,-169.03 34.92,-38.57 78.97,-57.79 132.28,-57.79 48.81,0 91.17,20.35 126.8,60.89l0 -217.43 115.31 0 0 602.61zm-308.04 -226.82c0,46.71 6.46,80.52 19.22,101.42 18.65,30.3 44.6,45.45 77.98,45.45 26.51,0 49.1,-11.36 67.61,-34.09 18.66,-22.72 27.91,-56.53 27.91,-101.7 0,-50.36 -8.98,-86.55 -27.07,-108.71 -18.1,-22.17 -41.1,-33.24 -69.29,-33.24 -27.36,0 -50.22,10.93 -68.74,32.82 -18.37,21.88 -27.63,54.56 -27.63,98.04z"/>
    <path id="15" class="fil10" d="M12509.79 12923.2c0,-38.44 9.39,-75.61 28.33,-111.52 18.94,-36.04 45.73,-63.4 80.38,-82.34 34.64,-18.94 73.22,-28.48 116.01,-28.48 66.06,0 120.07,21.46 162.29,64.39 42.23,43.06 63.27,97.21 63.27,162.85 0,66.2 -21.32,121.05 -63.83,164.53 -42.64,43.48 -96.22,65.23 -160.9,65.23 -39.97,0 -78.12,-9.13 -114.45,-27.22 -36.19,-18.09 -63.83,-44.6 -82.76,-79.67 -18.94,-34.93 -28.33,-77.58 -28.33,-127.78zm118.67 6.17c0,43.34 10.24,76.58 30.72,99.59 20.62,23.14 45.87,34.64 76.02,34.64 30.02,0 55.27,-11.5 75.61,-34.64 20.34,-23.01 30.58,-56.53 30.58,-100.44 0,-42.78 -10.24,-75.75 -30.58,-98.75 -20.34,-23.15 -45.59,-34.65 -75.61,-34.65 -30.16,0 -55.41,11.5 -76.02,34.65 -20.48,23 -30.72,56.24 -30.72,99.59z"/>
    <path id="16" class="fil10" d="M5358.94 14087.16l-115.31 0 0 -222.61c0,-47.14 -2.52,-77.58 -7.43,-91.32 -5.05,-13.89 -13.05,-24.54 -24.27,-32.26 -11.22,-7.71 -24.68,-11.5 -40.4,-11.5 -20.2,0 -38.29,5.47 -54.28,16.41 -16.12,10.93 -27.07,25.53 -32.96,43.48 -6.03,18.09 -8.98,51.48 -8.98,100.29l0 197.51 -115.3 0 0 -436.8 106.88 0 0 64.11c38.3,-48.96 86.41,-73.37 144.62,-73.37 25.53,0 48.96,4.63 70.14,13.75 21.31,9.26 37.31,20.9 48.11,35.07 10.93,14.31 18.51,30.44 22.72,48.54 4.34,18.09 6.45,43.9 6.45,77.57l0 271.15z"/>
    <path id="17" class="fil10" d="M5561.62 13785.02l-104.36 -18.52c11.79,-42.64 32.13,-74.21 60.89,-94.68 28.75,-20.48 71.53,-30.73 128.2,-30.73 51.48,0 89.91,6.03 115.16,18.24 25.11,12.21 42.92,27.63 53.17,46.43 10.24,18.8 15.43,53.16 15.43,103.38l-1.69 134.65c0,38.3 1.83,66.63 5.48,84.87 3.65,18.23 10.52,37.73 20.62,58.49l-114.46 0c-2.94,-7.57 -6.73,-18.8 -11.07,-33.67 -1.83,-6.87 -3.23,-11.36 -4.08,-13.46 -19.63,19.35 -40.68,33.8 -63.12,43.48 -22.44,9.68 -46.28,14.59 -71.67,14.59 -44.75,0 -80.1,-12.21 -105.91,-36.61 -25.82,-24.27 -38.72,-55.13 -38.72,-92.45 0,-24.54 5.89,-46.57 17.67,-65.93 11.78,-19.21 28.19,-34.09 49.51,-44.32 21.18,-10.24 51.76,-19.21 91.74,-26.93 53.87,-10.1 91.31,-19.64 112.08,-28.34l0 -11.64c0,-22.45 -5.48,-38.43 -16.41,-48.11 -11.08,-9.54 -31.84,-14.3 -62.29,-14.3 -20.62,0 -36.61,4.07 -48.11,12.34 -11.64,8.14 -20.89,22.58 -28.05,43.21zm154.86 93.42c-14.73,4.9 -38.15,10.8 -70.28,17.67 -31.98,6.87 -53.02,13.6 -62.84,20.05 -15.01,10.81 -22.58,24.27 -22.58,40.69 0,16.27 6.03,30.16 18.1,41.94 12.06,11.78 27.35,17.67 46,17.67 20.77,0 40.68,-6.87 59.61,-20.48 13.89,-10.53 23.15,-23.15 27.5,-38.3 2.95,-9.81 4.49,-28.61 4.49,-56.24l0 -23zm-150.66 -283.63l-53.02 0c-0.28,-6.31 -0.42,-11.22 -0.42,-14.73 0,-28.76 7.02,-50.92 21.04,-66.34 13.89,-15.58 31.98,-23.29 53.86,-23.29 9.68,0 18.52,0.98 26.8,3.09 8.27,2.1 23.28,7.99 45.02,17.67 21.89,9.67 38.86,14.58 51.34,14.58 8.7,0 15.99,-2.8 21.88,-8.27 6.03,-5.62 9.68,-14.87 11.36,-27.92l53.02 0c-0.28,37.46 -7.15,64.11 -20.62,80.24 -13.61,16.13 -31,24.13 -52.32,24.13 -9.4,0 -18.52,-0.98 -27.5,-2.94 -6.31,-1.69 -22.03,-7.57 -47.14,-17.53 -25.25,-9.96 -43.48,-14.87 -54.98,-14.87 -8.84,0 -15.57,2.66 -20.48,8.14 -5.05,5.33 -7.57,14.72 -7.86,28.05z"/>
    <path id="18" class="fil10" d="M5916.94 13863.43c0,-38.44 9.39,-75.61 28.33,-111.52 18.94,-36.04 45.73,-63.4 80.38,-82.34 34.64,-18.94 73.22,-28.48 116.01,-28.48 66.06,0 120.07,21.46 162.29,64.39 42.23,43.06 63.27,97.21 63.27,162.85 0,66.2 -21.32,121.05 -63.83,164.53 -42.64,43.48 -96.22,65.23 -160.9,65.23 -39.97,0 -78.12,-9.13 -114.45,-27.22 -36.19,-18.09 -63.83,-44.6 -82.76,-79.67 -18.94,-34.93 -28.33,-77.58 -28.33,-127.78zm118.67 6.17c0,43.34 10.24,76.58 30.72,99.59 20.62,23.14 45.87,34.64 76.02,34.64 30.02,0 55.27,-11.5 75.61,-34.64 20.34,-23.01 30.58,-56.53 30.58,-100.44 0,-42.78 -10.24,-75.75 -30.58,-98.75 -20.34,-23.15 -45.59,-34.65 -75.61,-34.65 -30.16,0 -55.41,11.5 -76.02,34.65 -20.48,23 -30.72,56.24 -30.72,99.59z"/>
    <path id="19" class="fil10" d="M6641.29 13650.36l63.97 0 0 -32.96c0,-36.75 3.93,-64.25 11.78,-82.35 7.85,-18.23 22.31,-32.96 43.34,-44.32 21.18,-11.36 47.83,-17.11 80.1,-17.11 32.96,0 65.37,4.91 97.07,14.72l-14.73 80.24c-18.8,-4.34 -36.89,-6.59 -54.28,-6.59 -17.11,0 -29.31,3.93 -36.75,11.78 -7.44,7.85 -11.22,23 -11.22,45.45l0 31.14 86.69 0 0 90.9 -86.69 0 0 345.91 -115.3 0 0 -345.91 -63.97 0 0 -90.9z"/>
    <path id="20" class="fil10" d="M6945.12 13863.43c0,-38.44 9.39,-75.61 28.33,-111.52 18.94,-36.04 45.73,-63.4 80.38,-82.34 34.64,-18.94 73.22,-28.48 116.01,-28.48 66.06,0 120.07,21.46 162.29,64.39 42.23,43.06 63.27,97.21 63.27,162.85 0,66.2 -21.32,121.05 -63.83,164.53 -42.64,43.48 -96.22,65.23 -160.9,65.23 -39.97,0 -78.12,-9.13 -114.45,-27.22 -36.19,-18.09 -63.83,-44.6 -82.76,-79.67 -18.94,-34.93 -28.33,-77.58 -28.33,-127.78zm118.67 6.17c0,43.34 10.24,76.58 30.72,99.59 20.62,23.14 45.87,34.64 76.02,34.64 30.02,0 55.27,-11.5 75.61,-34.64 20.34,-23.01 30.58,-56.53 30.58,-100.44 0,-42.78 -10.24,-75.75 -30.58,-98.75 -20.34,-23.15 -45.59,-34.65 -75.61,-34.65 -30.16,0 -55.41,11.5 -76.02,34.65 -20.48,23 -30.72,56.24 -30.72,99.59z"/>
    <path id="21" class="fil10" d="M7486.14 13591.44l0 -106.89 115.3 0 0 106.89 -115.3 0zm0 495.72l0 -436.8 115.3 0 0 436.8 -115.3 0z"/>
    <path id="22" class="fil10" d="M8206.28 13949.14l115.31 19.35c-14.73,42.22 -38.16,74.34 -70,96.5 -31.98,22.03 -71.96,33.11 -119.79,33.11 -75.89,0 -132.14,-24.83 -168.46,-74.48 -28.76,-39.84 -43.21,-90.06 -43.21,-150.8 0,-72.38 18.94,-129.19 56.67,-170.15 37.73,-41.09 85.57,-61.58 143.36,-61.58 64.8,0 116.01,21.46 153.6,64.39 37.45,42.92 55.41,108.71 53.72,197.36l-288.68 0c0.84,34.22 10.1,60.88 27.92,79.95 17.67,19.08 39.83,28.62 66.2,28.62 18.09,0 33.24,-4.91 45.45,-14.73 12.35,-9.81 21.6,-25.67 27.91,-47.55zm6.73 -116.99c-0.83,-33.53 -9.39,-59.06 -25.81,-76.45 -16.41,-17.53 -36.33,-26.22 -59.89,-26.22 -25.11,0 -45.88,9.25 -62.29,27.62 -16.41,18.38 -24.4,43.49 -24.13,75.05l172.11 0z"/>
    <path id="23" class="fil10" d="M8819.13 14087.16l-115.31 0 0 -222.61c0,-47.14 -2.52,-77.58 -7.43,-91.32 -5.05,-13.89 -13.05,-24.54 -24.27,-32.26 -11.22,-7.71 -24.68,-11.5 -40.4,-11.5 -20.2,0 -38.29,5.47 -54.28,16.41 -16.12,10.93 -27.07,25.53 -32.96,43.48 -6.03,18.09 -8.98,51.48 -8.98,100.29l0 197.51 -115.3 0 0 -436.8 106.88 0 0 64.11c38.3,-48.96 86.41,-73.37 144.62,-73.37 25.53,0 48.96,4.63 70.14,13.75 21.31,9.26 37.31,20.9 48.11,35.07 10.93,14.31 18.51,30.44 22.72,48.54 4.34,18.09 6.45,43.9 6.45,77.57l0 271.15z"/>
    <path id="24" class="fil10" d="M9316.39 13779.97l-113.63 20.2c-3.79,-22.58 -12.48,-39.56 -26.08,-51.06 -13.61,-11.36 -31.14,-17.11 -52.74,-17.11 -28.76,0 -51.76,9.95 -68.88,29.87 -17.11,19.92 -25.67,53.16 -25.67,99.87 0,51.9 8.7,88.52 26.09,109.98 17.4,21.46 40.68,32.12 69.85,32.12 21.88,0 39.84,-6.31 53.73,-18.8 14.03,-12.49 23.85,-33.95 29.59,-64.52l113.62 19.35c-11.78,52.19 -34.36,91.6 -67.75,118.25 -33.38,26.65 -78.12,39.98 -134.38,39.98 -63.68,0 -114.6,-20.2 -152.48,-60.46 -38.01,-40.4 -56.95,-96.23 -56.95,-167.63 0,-72.24 19.08,-128.35 57.09,-168.61 38.01,-40.26 89.49,-60.32 154.44,-60.32 53.02,0 95.24,11.51 126.66,34.37 31.28,22.86 53.73,57.64 67.48,104.5z"/>
    <path id="25" class="fil10" d="M9377.13 13863.43c0,-38.44 9.39,-75.61 28.33,-111.52 18.94,-36.04 45.73,-63.4 80.38,-82.34 34.64,-18.94 73.22,-28.48 116.01,-28.48 66.06,0 120.07,21.46 162.29,64.39 42.23,43.06 63.27,97.21 63.27,162.85 0,66.2 -21.32,121.05 -63.83,164.53 -42.64,43.48 -96.22,65.23 -160.9,65.23 -39.97,0 -78.12,-9.13 -114.45,-27.22 -36.19,-18.09 -63.83,-44.6 -82.76,-79.67 -18.94,-34.93 -28.33,-77.58 -28.33,-127.78zm118.67 6.17c0,43.34 10.24,76.58 30.72,99.59 20.62,23.14 45.87,34.64 76.02,34.64 30.02,0 55.27,-11.5 75.61,-34.64 20.34,-23.01 30.58,-56.53 30.58,-100.44 0,-42.78 -10.24,-75.75 -30.58,-98.75 -20.34,-23.15 -45.59,-34.65 -75.61,-34.65 -30.16,0 -55.41,11.5 -76.02,34.65 -20.48,23 -30.72,56.24 -30.72,99.59z"/>
    <path id="26" class="fil10" d="M10315.4 14087.16l-115.31 0 0 -222.61c0,-47.14 -2.52,-77.58 -7.43,-91.32 -5.05,-13.89 -13.05,-24.54 -24.27,-32.26 -11.22,-7.71 -24.68,-11.5 -40.4,-11.5 -20.2,0 -38.29,5.47 -54.28,16.41 -16.12,10.93 -27.07,25.53 -32.96,43.48 -6.03,18.09 -8.98,51.48 -8.98,100.29l0 197.51 -115.3 0 0 -436.8 106.88 0 0 64.11c38.3,-48.96 86.41,-73.37 144.62,-73.37 25.53,0 48.96,4.63 70.14,13.75 21.31,9.26 37.31,20.9 48.11,35.07 10.93,14.31 18.51,30.44 22.72,48.54 4.34,18.09 6.45,43.9 6.45,77.57l0 271.15z"/>
    <path id="27" class="fil10" d="M10631.7 13650.36l0 91.74 -79.12 0 0 176.88c0,35.9 0.71,56.81 2.25,62.69 1.54,5.89 4.91,10.81 10.38,14.73 5.34,3.79 11.79,5.76 19.5,5.76 10.8,0 26.23,-3.65 46.57,-11.08l9.67 89.77c-26.79,11.5 -57.09,17.26 -91.03,17.26 -20.76,0 -39.41,-3.51 -56.1,-10.53 -16.69,-7.01 -28.9,-16.12 -36.61,-27.21 -7.85,-11.22 -13.19,-26.23 -16.27,-45.31 -2.39,-13.47 -3.65,-40.68 -3.65,-81.78l0 -191.18 -53.02 0 0 -91.74 53.02 0 0 -86.69 115.3 -68.17 0 154.86 79.12 0z"/>
    <path id="28" class="fil10" d="M10822.75 14087.16l-115.3 0 0 -436.8 106.89 0 0 62c18.37,-29.31 34.92,-48.54 49.65,-57.65 14.73,-9.12 31.42,-13.61 50.08,-13.61 26.37,0 51.76,7.3 76.16,21.75l-35.77 100.72c-19.5,-12.62 -37.59,-18.94 -54.28,-18.94 -16.27,0 -30.02,4.48 -41.24,13.32 -11.22,8.98 -20.06,24.97 -26.51,48.25 -6.45,23.29 -9.68,72.1 -9.68,146.3l0 134.66z"/>
    <path id="29" class="fil10" d="M11125.88 13785.02l-104.36 -18.52c11.79,-42.64 32.13,-74.21 60.89,-94.68 28.75,-20.48 71.53,-30.73 128.2,-30.73 51.48,0 89.91,6.03 115.16,18.24 25.11,12.21 42.92,27.63 53.17,46.43 10.24,18.8 15.43,53.16 15.43,103.38l-1.69 134.65c0,38.3 1.83,66.63 5.48,84.87 3.65,18.23 10.52,37.73 20.62,58.49l-114.46 0c-2.94,-7.57 -6.73,-18.8 -11.07,-33.67 -1.83,-6.87 -3.23,-11.36 -4.08,-13.46 -19.63,19.35 -40.68,33.8 -63.12,43.48 -22.44,9.68 -46.28,14.59 -71.67,14.59 -44.75,0 -80.1,-12.21 -105.91,-36.61 -25.82,-24.27 -38.72,-55.13 -38.72,-92.45 0,-24.54 5.89,-46.57 17.67,-65.93 11.78,-19.21 28.19,-34.09 49.51,-44.32 21.18,-10.24 51.76,-19.21 91.74,-26.93 53.87,-10.1 91.31,-19.64 112.08,-28.34l0 -11.64c0,-22.45 -5.48,-38.43 -16.41,-48.11 -11.08,-9.54 -31.84,-14.3 -62.29,-14.3 -20.62,0 -36.61,4.07 -48.11,12.34 -11.64,8.14 -20.89,22.58 -28.05,43.21zm154.86 93.42c-14.73,4.9 -38.15,10.8 -70.28,17.67 -31.98,6.87 -53.02,13.6 -62.84,20.05 -15.01,10.81 -22.58,24.27 -22.58,40.69 0,16.27 6.03,30.16 18.1,41.94 12.06,11.78 27.35,17.67 46,17.67 20.77,0 40.68,-6.87 59.61,-20.48 13.89,-10.53 23.15,-23.15 27.5,-38.3 2.95,-9.81 4.49,-28.61 4.49,-56.24l0 -23z"/>
    <path id="30" class="fil10" d="M11908.74 14087.16l-106.89 0 0 -64.11c-17.81,24.97 -39,43.63 -63.26,56.25 -24.27,12.49 -48.82,18.8 -73.51,18.8 -50.35,0 -93.42,-20.2 -129.33,-60.74 -35.77,-40.55 -53.73,-96.93 -53.73,-169.45 0,-74.06 17.4,-130.45 52.33,-169.03 34.92,-38.57 78.97,-57.79 132.28,-57.79 48.81,0 91.17,20.35 126.8,60.89l0 -217.43 115.31 0 0 602.61zm-308.04 -226.82c0,46.71 6.46,80.52 19.22,101.42 18.65,30.3 44.6,45.45 77.98,45.45 26.51,0 49.1,-11.36 67.61,-34.09 18.66,-22.72 27.91,-56.53 27.91,-101.7 0,-50.36 -8.98,-86.55 -27.07,-108.71 -18.1,-22.17 -41.1,-33.24 -69.29,-33.24 -27.36,0 -50.22,10.93 -68.74,32.82 -18.37,21.88 -27.63,54.56 -27.63,98.04z"/>
    <path id="31" class="fil10" d="M11995.28 13863.43c0,-38.44 9.39,-75.61 28.33,-111.52 18.94,-36.04 45.73,-63.4 80.38,-82.34 34.64,-18.94 73.22,-28.48 116.01,-28.48 66.06,0 120.07,21.46 162.29,64.39 42.23,43.06 63.27,97.21 63.27,162.85 0,66.2 -21.32,121.05 -63.83,164.53 -42.64,43.48 -96.22,65.23 -160.9,65.23 -39.97,0 -78.12,-9.13 -114.45,-27.22 -36.19,-18.09 -63.83,-44.6 -82.76,-79.67 -18.94,-34.93 -28.33,-77.58 -28.33,-127.78zm118.67 6.17c0,43.34 10.24,76.58 30.72,99.59 20.62,23.14 45.87,34.64 76.02,34.64 30.02,0 55.27,-11.5 75.61,-34.64 20.34,-23.01 30.58,-56.53 30.58,-100.44 0,-42.78 -10.24,-75.75 -30.58,-98.75 -20.34,-23.15 -45.59,-34.65 -75.61,-34.65 -30.16,0 -55.41,11.5 -76.02,34.65 -20.48,23 -30.72,56.24 -30.72,99.59z"/>
    <polygon id="32" class="fil10" points="12535.46,14087.16 12535.46,13971.86 12650.77,13971.86 12650.77,14087.16 "/>
   </g>
  </g>
 </g>
</svg>
