<?xml version="1.0" encoding="UTF-8"?>
<!DOCTYPE svg PUBLIC "-//W3C//DTD SVG 1.1//EN" "http://www.w3.org/Graphics/SVG/1.1/DTD/svg11.dtd">
<!-- Creator: CorelDRAW Home & Student 2018 -->
<svg xmlns="http://www.w3.org/2000/svg" xml:space="preserve" width="193.04mm" height="164.677mm" version="1.1" style="shape-rendering:geometricPrecision; text-rendering:geometricPrecision; image-rendering:optimizeQuality; fill-rule:evenodd; clip-rule:evenodd"
viewBox="0 0 19349.41 16506.4"
 xmlns:xlink="http://www.w3.org/1999/xlink">
 <defs>
  <style type="text/css">
   <![CDATA[
    .fil0 {fill:none}
    .fil2 {fill:#333333}
    .fil3 {fill:black;fill-rule:nonzero}
    .fil1 {fill:black;fill-opacity:0.070588}
   ]]>
  </style>
 </defs>
 <g id="Camada_x0020_1">
  <metadata id="CorelCorpID_0Corel-Layer"/>
  <g id="_839242376">
   <rect class="fil0" x="-0.01" y="-0.01" width="19349.41" height="16506.4"/>
   <g>
    <path class="fil1" d="M9674.69 820.21c3995.68,0 7234.81,3239.13 7234.81,7234.8 0,3995.68 -3239.13,7234.81 -7234.81,7234.81 -3995.67,0 -7234.8,-3239.13 -7234.8,-7234.81 0,-3995.67 3239.13,-7234.8 7234.8,-7234.8z"/>
    <path class="fil2" d="M8917.03 4186.77l0 0c-78.92,-72.42 -202.74,-67.12 -275.17,11.8l-2095.23 2282.88 -765.17 0c-344.25,0 -625.89,281.64 -625.89,625.89l0 84.86c0,230.04 125.79,432.09 311.96,540.86l609.52 3636.6c54.96,327.98 272.32,604.66 604.65,604.66l6036.03 0c332.12,0 554.21,-276.19 604.67,-604.66l558.66 -3636.14c186.6,-108.65 312.72,-310.96 312.72,-541.32l0 -84.86c0,-344.25 -281.64,-625.89 -625.89,-625.89l-765.16 0 -2095.23 -2282.88c-72.43,-78.92 -196.25,-84.22 -275.17,-11.8l0 0c-78.91,72.43 -84.22,196.25 -11.79,275.17l1853.51 2019.51 -5198.78 0 1853.51 -2019.51c72.43,-78.92 67.12,-202.74 -11.79,-275.17zm-2701.42 2655.35l-23.06 25.13c-72.43,78.92 -67.12,202.74 11.8,275.16l0 0c78.91,72.43 202.73,67.13 275.16,-11.79l264.78 -288.5 5860.83 0 264.78 288.5c72.43,78.92 196.25,84.22 275.16,11.79l0 0c78.92,-72.42 84.23,-196.24 11.8,-275.16l-23.06 -25.13 487.21 0c115.22,0 209.49,94.27 209.49,209.49l0 196.3c0,115.22 -94.27,209.49 -209.49,209.49l-7892.61 0c-115.22,0 -209.49,-94.27 -209.49,-209.49l0 -196.3c0,-115.22 94.27,-209.49 209.49,-209.49l487.22 0zm3370.5 1458.64l0.01 0c110.86,0 201.55,90.69 201.55,201.55l0 2434.6c0,110.86 -90.69,201.55 -201.55,201.55l-0.01 0c-110.86,0 -201.55,-90.69 -201.55,-201.55l0 -2434.6c0,-110.86 90.69,-201.55 201.55,-201.55zm-2217.36 17.88l0.01 0c110.3,-11.21 209.69,69.85 220.9,180.15l246.12 2422.12c11.21,110.29 -69.85,209.69 -180.14,220.9l-0.01 0c-110.3,11.21 -209.69,-69.85 -220.9,-180.15l-246.12 -2422.12c-11.21,-110.29 69.85,-209.69 180.14,-220.9zm4611.9 0l-0.01 0c-110.3,-11.21 -209.69,69.85 -220.9,180.15l-246.12 2422.12c-11.21,110.29 69.85,209.69 180.14,220.9l0.01 0c110.3,11.21 209.69,-69.85 220.9,-180.15l246.12 -2422.12c11.21,-110.29 -69.85,-209.69 -180.14,-220.9zm1554.4 -428.52l-7718.5 0 574.38 3426.92c25.32,151.04 113.31,339.03 290.79,339.03l6036.03 0c176.61,0 266.75,-182.58 290.12,-334.75l527.18 -3431.2z"/>
    <polygon class="fil3" points="4094.78,14363.53 4094.78,13525.57 4259.01,13525.57 4603.87,14087.14 4603.87,13525.57 4760.7,13525.57 4760.7,14363.53 4591.19,14363.53 4251.6,13812.7 4251.6,14363.53 "/>
    <polygon id="1" class="fil3" points="4939.95,14363.53 4939.95,13525.57 5560.23,13525.57 5560.23,13667.19 5109.65,13667.19 5109.65,13853.27 5528.63,13853.27 5528.63,13994.87 5109.65,13994.87 5109.65,14221.92 5576.61,14221.92 5576.61,14363.53 "/>
    <polygon id="2" class="fil3" points="5720.56,14363.53 5720.56,13525.57 5884.8,13525.57 6229.66,14087.14 6229.66,13525.57 6386.48,13525.57 6386.48,14363.53 6216.98,14363.53 5877.39,13812.7 5877.39,14363.53 "/>
    <polygon id="3" class="fil3" points="6565.73,14363.53 6565.73,13525.57 6735.43,13525.57 6735.43,13855.61 7065.47,13855.61 7065.47,13525.57 7235.16,13525.57 7235.16,14363.53 7065.47,14363.53 7065.47,13997.22 6735.43,13997.22 6735.43,14363.53 "/>
    <path id="4" class="fil3" d="M7410.91 13525.57l169.7 0 0 454.09c0,72.17 2.15,118.79 6.24,140.05 7.22,34.33 24.19,62.04 51.1,82.7 27.11,20.87 63.98,31.21 110.79,31.21 47.4,0 83.3,-9.75 107.48,-29.46 24.19,-19.7 38.62,-43.69 43.49,-72.36 4.88,-28.68 7.42,-76.07 7.42,-142.39l0 -463.84 169.7 0 0 440.63c0,100.65 -4.49,171.84 -13.66,213.39 -9.16,41.54 -25.94,76.65 -50.52,105.33 -24.38,28.67 -57.14,51.3 -98.11,68.27 -41.16,16.97 -94.6,25.55 -160.73,25.55 -79.78,0 -140.24,-9.17 -181.4,-27.69 -41.16,-18.53 -73.73,-42.53 -97.72,-72.17 -24,-29.65 -39.6,-60.47 -47.21,-93.05 -11.12,-47.98 -16.58,-118.98 -16.58,-212.8l0 -447.46z"/>
    <polygon id="5" class="fil3" points="8253.74,14363.53 8253.74,13525.57 8507.9,13525.57 8658.09,14097.08 8806.53,13525.57 9061.27,13525.57 9061.27,14363.53 8904.44,14363.53 8903.86,13703.85 8738.65,14363.53 8575.58,14363.53 8411.15,13703.85 8410.56,14363.53 "/>
    <path id="6" class="fil3" d="M9556.11 14363.53l0 -837.96 271.33 0c102.79,0 169.7,4.1 200.9,12.49 47.98,12.68 88.17,39.98 120.54,82.11 32.39,42.13 48.57,96.56 48.57,163.26 0,51.49 -9.36,94.6 -27.9,129.71 -18.72,35.1 -42.33,62.61 -71,82.7 -28.68,19.89 -57.94,33.16 -87.59,39.59 -40.37,8 -98.69,12.09 -175.16,12.09l-110.01 0 0 315.99 -169.7 0zm169.7 -696.34l0 238.75 92.27 0c66.51,0 110.79,-4.49 133.22,-13.27 22.42,-8.77 39.98,-22.42 52.66,-41.35 12.68,-18.72 19.11,-40.37 19.11,-65.34 0,-30.62 -8.97,-55.79 -26.72,-75.68 -17.94,-19.9 -40.37,-32.39 -67.88,-37.46 -20.1,-3.7 -60.47,-5.65 -121.32,-5.65l-81.34 0z"/>
    <path id="7" class="fil3" d="M10336.72 14363.53l0 -837.96 356.37 0c89.53,0 154.68,7.61 195.25,22.63 40.77,15.02 73.15,41.74 97.53,80.17 24.39,38.62 36.68,82.5 36.68,132.05 0,63 -18.34,114.88 -55.21,155.85 -36.86,40.97 -91.87,66.71 -165.21,77.43 36.48,21.27 66.52,44.67 90.11,70.22 23.81,25.55 55.79,71 95.98,136.15l102.2 163.45 -202.26 0 -121.32 -182.96c-43.5,-64.95 -73.34,-105.92 -89.53,-122.89 -16,-16.77 -32.97,-28.48 -50.91,-34.72 -18.14,-6.23 -46.62,-9.36 -85.63,-9.36l-34.33 0 0 349.93 -169.7 0zm169.7 -483.34l125.22 0c81.15,0 131.67,-3.51 151.95,-10.33 20.1,-6.84 36.08,-18.73 47.4,-35.5 11.51,-16.78 17.17,-37.84 17.17,-63.01 0,-28.28 -7.61,-50.91 -22.63,-68.46 -15.02,-17.36 -36.28,-28.29 -63.59,-32.77 -13.84,-1.95 -55,-2.93 -123.47,-2.93l-132.05 0 0 213z"/>
    <path id="8" class="fil3" d="M11146.79 13949.63c0,-85.44 12.87,-157.22 38.42,-215.35 18.92,-42.72 45.06,-81.14 78.02,-115.08 32.97,-33.94 69.05,-59.1 108.25,-75.68 52.27,-22.04 112.54,-33.17 180.81,-33.17 123.67,0 222.36,38.43 296.68,115.09 74.12,76.85 111.18,183.54 111.18,320.27 0,135.57 -36.86,241.68 -110.4,318.14 -73.53,76.66 -172.03,114.89 -295.11,114.89 -124.64,0 -223.93,-38.04 -297.46,-114.31 -73.54,-76.07 -110.4,-181 -110.4,-314.81zm174.38 -5.66c0,94.99 22.03,166.97 65.92,216.13 43.88,48.95 99.67,73.53 167.16,73.53 67.68,0 123.08,-24.39 166.57,-72.95 43.3,-48.76 64.95,-121.72 64.95,-219.04 0,-96.17 -21.06,-167.94 -63.39,-215.14 -42.13,-47.4 -98.11,-71.01 -168.13,-71.01 -69.83,0 -126.21,24 -168.92,71.79 -42.72,47.98 -64.17,120.15 -64.17,216.7z"/>
    <path id="9" class="fil3" d="M12092.21 13525.57l308.58 0c69.63,0 122.69,5.27 159.16,16 48.95,14.43 91.08,40.18 126.01,77.24 35.1,36.87 61.63,82.12 79.97,135.76 18.14,53.45 27.3,119.57 27.3,197.97 0,69.05 -8.58,128.35 -25.74,178.29 -20.87,61.04 -50.72,110.4 -89.53,148.05 -29.26,28.67 -68.86,50.9 -118.6,66.9 -37.26,11.9 -86.99,17.75 -149.41,17.75l-317.75 0 0 -837.96zm169.7 141.61l0 554.73 125.82 0c47.01,0 80.94,-2.73 101.82,-8 27.49,-6.83 50.13,-18.52 68.07,-34.91 18.14,-16.38 32.77,-43.3 44.08,-80.75 11.51,-37.45 17.16,-88.75 17.16,-153.51 0,-64.76 -5.65,-114.3 -17.16,-149.02 -11.32,-34.72 -27.3,-61.63 -47.79,-81.14 -20.48,-19.32 -46.42,-32.58 -78.02,-39.4 -23.4,-5.27 -69.63,-8 -138.28,-8l-75.69 0z"/>
    <path id="10" class="fil3" d="M12937.38 13525.57l169.7 0 0 454.09c0,72.17 2.15,118.79 6.24,140.05 7.22,34.33 24.19,62.04 51.1,82.7 27.11,20.87 63.98,31.21 110.79,31.21 47.4,0 83.3,-9.75 107.48,-29.46 24.19,-19.7 38.62,-43.69 43.49,-72.36 4.88,-28.68 7.42,-76.07 7.42,-142.39l0 -463.84 169.7 0 0 440.63c0,100.65 -4.49,171.84 -13.66,213.39 -9.16,41.54 -25.94,76.65 -50.52,105.33 -24.38,28.67 -57.14,51.3 -98.11,68.27 -41.16,16.97 -94.6,25.55 -160.73,25.55 -79.78,0 -140.24,-9.17 -181.4,-27.69 -41.16,-18.53 -73.73,-42.53 -97.72,-72.17 -24,-29.65 -39.6,-60.47 -47.21,-93.05 -11.12,-47.98 -16.58,-118.98 -16.58,-212.8l0 -447.46z"/>
    <polygon id="11" class="fil3" points="13970.98,14363.53 13970.98,13667.19 13722.88,13667.19 13722.88,13525.57 14387.62,13525.57 14387.62,13667.19 14140.68,13667.19 14140.68,14363.53 "/>
    <path id="12" class="fil3" d="M14441.26 13949.63c0,-85.44 12.87,-157.22 38.42,-215.35 18.92,-42.72 45.06,-81.14 78.02,-115.08 32.97,-33.94 69.05,-59.1 108.25,-75.68 52.27,-22.04 112.54,-33.17 180.81,-33.17 123.67,0 222.36,38.43 296.68,115.09 74.12,76.85 111.18,183.54 111.18,320.27 0,135.57 -36.86,241.68 -110.4,318.14 -73.53,76.66 -172.03,114.89 -295.11,114.89 -124.64,0 -223.93,-38.04 -297.46,-114.31 -73.54,-76.07 -110.4,-181 -110.4,-314.81zm174.38 -5.66c0,94.99 22.03,166.97 65.92,216.13 43.88,48.95 99.67,73.53 167.16,73.53 67.68,0 123.08,-24.39 166.57,-72.95 43.3,-48.76 64.95,-121.72 64.95,-219.04 0,-96.17 -21.06,-167.94 -63.39,-215.14 -42.13,-47.4 -98.11,-71.01 -168.13,-71.01 -69.83,0 -126.21,24 -168.92,71.79 -42.72,47.98 -64.17,120.15 -64.17,216.7z"/>
    <polygon id="13" class="fil3" points="5384.57,15670.98 5384.57,14833.02 6004.85,14833.02 6004.85,14974.63 5554.27,14974.63 5554.27,15160.72 5973.25,15160.72 5973.25,15302.32 5554.27,15302.32 5554.27,15529.36 6021.24,15529.36 6021.24,15670.98 "/>
    <polygon id="14" class="fil3" points="6165.18,15670.98 6165.18,14833.02 6329.42,14833.02 6674.28,15394.59 6674.28,14833.02 6831.11,14833.02 6831.11,15670.98 6661.6,15670.98 6322.01,15120.14 6322.01,15670.98 "/>
    <path id="15" class="fil3" d="M7546.36 15362.01l163.85 50.32c-25.17,92.27 -67.11,160.73 -125.61,205.59 -58.52,44.66 -132.64,67.1 -222.56,67.1 -111.37,0 -202.86,-38.04 -274.63,-114.11 -71.59,-76.07 -107.47,-180.03 -107.47,-312.08 0,-139.47 36.08,-247.92 108.05,-325.16 71.98,-77.24 166.77,-115.86 284.2,-115.86 102.6,0 185.89,30.43 249.87,91.09 38.23,35.89 66.71,87.39 85.82,154.68l-167.35 39.78c-9.95,-43.3 -30.62,-77.63 -62.03,-102.79 -31.6,-25.16 -69.83,-37.65 -114.7,-37.65 -62.22,0 -112.73,22.24 -151.36,66.91 -38.82,44.47 -58.13,116.64 -58.13,216.51 0,105.72 19.11,181.21 57.14,226.07 38.23,45.06 87.78,67.49 148.83,67.49 45.06,0 83.88,-14.23 116.25,-42.91 32.38,-28.68 55.78,-73.53 69.82,-134.98z"/>
    <path id="16" class="fil3" d="M7820.43 15257.08c0,-85.44 12.87,-157.22 38.42,-215.35 18.92,-42.72 45.06,-81.14 78.02,-115.08 32.97,-33.94 69.05,-59.1 108.25,-75.68 52.27,-22.04 112.54,-33.17 180.81,-33.17 123.67,0 222.36,38.43 296.68,115.09 74.12,76.85 111.18,183.54 111.18,320.27 0,135.57 -36.86,241.68 -110.4,318.14 -73.53,76.66 -172.03,114.89 -295.11,114.89 -124.64,0 -223.93,-38.04 -297.46,-114.31 -73.54,-76.07 -110.4,-181 -110.4,-314.81zm174.38 -5.66c0,94.99 22.03,166.97 65.92,216.13 43.88,48.95 99.67,73.53 167.16,73.53 67.68,0 123.08,-24.39 166.57,-72.95 43.3,-48.76 64.95,-121.72 64.95,-219.04 0,-96.17 -21.06,-167.94 -63.39,-215.14 -42.13,-47.4 -98.11,-71.01 -168.13,-71.01 -69.83,0 -126.21,24 -168.92,71.79 -42.72,47.98 -64.17,120.15 -64.17,216.7z"/>
    <polygon id="17" class="fil3" points="8765.85,15670.98 8765.85,14833.02 8930.08,14833.02 9274.94,15394.59 9274.94,14833.02 9431.77,14833.02 9431.77,15670.98 9262.26,15670.98 8922.67,15120.14 8922.67,15670.98 "/>
    <polygon id="18" class="fil3" points="9799.44,15670.98 9799.44,14974.63 9551.34,14974.63 9551.34,14833.02 10216.08,14833.02 10216.08,14974.63 9969.14,14974.63 9969.14,15670.98 "/>
    <path id="19" class="fil3" d="M10325.9 15670.98l0 -837.96 356.37 0c89.53,0 154.68,7.61 195.25,22.63 40.77,15.02 73.15,41.74 97.53,80.17 24.39,38.62 36.68,82.5 36.68,132.05 0,63 -18.34,114.88 -55.21,155.85 -36.86,40.97 -91.87,66.71 -165.21,77.43 36.48,21.27 66.52,44.67 90.11,70.22 23.81,25.55 55.79,71 95.98,136.15l102.2 163.45 -202.26 0 -121.32 -182.96c-43.5,-64.95 -73.34,-105.92 -89.53,-122.89 -16,-16.77 -32.97,-28.48 -50.91,-34.72 -18.14,-6.23 -46.62,-9.36 -85.63,-9.36l-34.33 0 0 349.93 -169.7 0zm169.7 -483.34l125.22 0c81.15,0 131.67,-3.51 151.95,-10.33 20.1,-6.84 36.08,-18.73 47.4,-35.5 11.51,-16.78 17.17,-37.84 17.17,-63.01 0,-28.28 -7.61,-50.91 -22.63,-68.46 -15.02,-17.36 -36.28,-28.29 -63.59,-32.77 -13.84,-1.95 -55,-2.93 -123.47,-2.93l-132.05 0 0 213z"/>
    <path id="20" class="fil3" d="M11925.93 15670.98l-182.76 0 -72.37 -190.77 -336.08 0 -69.63 190.77 -179.45 0 325.35 -837.96 179.25 0 335.69 837.96zm-310.14 -332.37l-116.44 -310.14 -113.14 310.14 229.58 0z"/>
    <path id="21" class="fil3" d="M12016.24 14833.02l308.58 0c69.63,0 122.69,5.27 159.16,16 48.95,14.43 91.08,40.18 126.01,77.24 35.1,36.87 61.63,82.12 79.97,135.76 18.14,53.45 27.3,119.57 27.3,197.97 0,69.05 -8.58,128.35 -25.74,178.29 -20.87,61.04 -50.72,110.4 -89.53,148.05 -29.26,28.67 -68.86,50.9 -118.6,66.9 -37.26,11.9 -86.99,17.75 -149.41,17.75l-317.75 0 0 -837.96zm169.7 141.61l0 554.73 125.82 0c47.01,0 80.94,-2.73 101.82,-8 27.49,-6.83 50.13,-18.52 68.07,-34.91 18.14,-16.38 32.77,-43.3 44.08,-80.75 11.51,-37.45 17.16,-88.75 17.16,-153.51 0,-64.76 -5.65,-114.3 -17.16,-149.02 -11.32,-34.72 -27.3,-61.63 -47.79,-81.14 -20.48,-19.32 -46.42,-32.58 -78.02,-39.4 -23.4,-5.27 -69.63,-8 -138.28,-8l-75.69 0z"/>
    <path id="22" class="fil3" d="M12826.31 15257.08c0,-85.44 12.87,-157.22 38.42,-215.35 18.92,-42.72 45.06,-81.14 78.02,-115.08 32.97,-33.94 69.05,-59.1 108.25,-75.68 52.27,-22.04 112.54,-33.17 180.81,-33.17 123.67,0 222.36,38.43 296.68,115.09 74.12,76.85 111.18,183.54 111.18,320.27 0,135.57 -36.86,241.68 -110.4,318.14 -73.53,76.66 -172.03,114.89 -295.11,114.89 -124.64,0 -223.93,-38.04 -297.46,-114.31 -73.54,-76.07 -110.4,-181 -110.4,-314.81zm174.38 -5.66c0,94.99 22.03,166.97 65.92,216.13 43.88,48.95 99.67,73.53 167.16,73.53 67.68,0 123.08,-24.39 166.57,-72.95 43.3,-48.76 64.95,-121.72 64.95,-219.04 0,-96.17 -21.06,-167.94 -63.39,-215.14 -42.13,-47.4 -98.11,-71.01 -168.13,-71.01 -69.83,0 -126.21,24 -168.92,71.79 -42.72,47.98 -64.17,120.15 -64.17,216.7z"/>
    <polygon id="23" class="fil3" points="13769.39,15670.98 13769.39,15510.64 13929.73,15510.64 13929.73,15670.98 "/>
   </g>
  </g>
 </g>
</svg>
