<?xml version="1.0" encoding="UTF-8"?>
<!DOCTYPE svg PUBLIC "-//W3C//DTD SVG 1.1//EN" "http://www.w3.org/Graphics/SVG/1.1/DTD/svg11.dtd">
<!-- Creator: CorelDRAW Home & Student 2018 -->
<svg xmlns="http://www.w3.org/2000/svg" xml:space="preserve" width="51.4911mm" height="5.5012mm" version="1.1" style="shape-rendering:geometricPrecision; text-rendering:geometricPrecision; image-rendering:optimizeQuality; fill-rule:evenodd; clip-rule:evenodd"
viewBox="0 0 1068.15 114.12"
 xmlns:xlink="http://www.w3.org/1999/xlink">
 <defs>
  <style type="text/css">
   <![CDATA[
    .fil1 {fill:#333333}
    .fil0 {fill:#7CB302}
   ]]>
  </style>
 </defs>
 <g id="Camada_x0020_1">
  <metadata id="CorelCorpID_0Corel-Layer"/>
  <g id="_859788424">
   <path class="fil0" d="M143.13 93.18c-5.78,0 -11.33,4.69 -12.39,10.47 -1.06,5.78 2.76,10.47 8.54,10.47 5.78,0 11.33,-4.69 12.39,-10.47 1.06,-5.78 -2.76,-10.47 -8.54,-10.47zm40.11 0c-5.78,0 -11.33,4.69 -12.39,10.47 -1.06,5.78 2.76,10.47 8.54,10.47 5.78,0 11.33,-4.69 12.39,-10.47 1.06,-5.78 -2.76,-10.47 -8.54,-10.47zm12.76 -8.14l-65.24 0c-3.37,0 -5.72,-2.52 -5.57,-5.77l-1.87 -64.68 -6.86 0c-3.68,0 -6.14,-3.02 -5.47,-6.7l0 0c0.68,-3.69 4.25,-6.7 7.93,-6.7l4.01 0 -0 -0.02 0.06 0.02 8.01 0c3.08,0 5.31,2.11 5.56,4.96l0 0 0 0.01c0.02,0.2 0.02,0.4 0.02,0.6l0.45 12.76 81.51 0c1.16,0 2.08,0.48 2.64,1.39 0.56,0.91 0.62,1.99 0.16,3.13l-12.55 31.27c-0.69,1.73 -2.41,2.93 -4.18,2.93l-7.62 0 -0.03 0 -34.77 0 -21.59 0c-0.58,0 -1.13,0.24 -1.58,0.7 -0.45,0.46 -0.67,1 -0.65,1.58l0.44 9.68c0.04,0.85 0.67,1.44 1.55,1.44l19.38 0 33.17 0 5.54 0c3.69,0 6.15,3.02 5.47,6.7l0 0c-0.68,3.69 -4.25,6.7 -7.93,6.7zm2.06 -40.94l-58.64 0c-0.89,0 -1.52,-0.6 -1.55,-1.47l-0.2 -6.7c-0.02,-0.57 0.21,-1.11 0.66,-1.56 0.45,-0.45 0.99,-0.69 1.57,-0.69l61.5 0c0.58,0 1.04,0.24 1.32,0.69 0.28,0.45 0.31,0.99 0.09,1.56l-2.66 6.7c-0.34,0.87 -1.2,1.47 -2.09,1.47z"/>
   <path class="fil1" d="M871.61 90.21l13.01 -70.77 36.6 0c5.8,0 12.14,0.07 17.71,0.96 5.17,0.82 10.19,2.35 14.41,5 4.71,2.96 8.4,6.92 10.42,12.19 2,5.2 2.22,10.93 1.12,16.89 -0.9,4.92 -2.61,9.81 -5.48,14.31 -2.5,3.91 -5.55,7.49 -9.26,10.4 -3.37,2.65 -7.01,4.81 -10.88,6.4 -4.22,1.73 -8.69,2.8 -13.02,3.48 -5.5,0.87 -11.03,1.14 -16.43,1.14l-38.19 0zm21.08 -13.27l18.09 0c4.67,0 10.05,-0.13 14.81,-1.13 2.74,-0.58 5.84,-1.46 8.37,-2.97 3.05,-1.82 5.54,-4.24 7.52,-7.17 2.36,-3.48 3.66,-7.47 4.37,-11.32 0.9,-4.87 0.95,-10.13 -1.76,-13.84 -2.39,-3.27 -5.6,-5.44 -9.68,-6.54 -4.46,-1.21 -11.02,-1.24 -15.84,-1.24l-17.75 0 -8.13 44.22z"/>
   <path class="fil1" d="M840.02 70.47l-37.98 0 -14.27 19.74 -20.32 0 53.88 -70.77 17.47 0 30.36 70.77 -21.42 0 -7.71 -19.74zm-13.04 -34.32c-1.4,2.3 -2.92,4.55 -4.54,6.76l-11.13 14.92 23.77 0 -5.3 -13.86c-0.98,-2.57 -1.93,-5.18 -2.8,-7.83z"/>
   <path class="fil1" d="M757.4 61.37l18.22 3.16 -1.82 3.22c-4.49,7.91 -11.04,13.73 -19.22,17.66 -9.15,4.39 -18.94,5.9 -28.28,5.9 -8.89,0 -18.45,-0.96 -26.03,-4.52 -6.19,-2.9 -11.06,-7.26 -13.87,-13.48 -2.61,-5.78 -3.39,-12.11 -2.13,-18.96 1.32,-7.19 4.56,-13.77 10.01,-19.46 5.69,-5.94 12.72,-9.88 20.19,-12.43 8.46,-2.89 17.04,-4.1 25.46,-4.1 8.84,0 17.75,1.3 25,5.27 6.19,3.39 10.69,8.35 12.47,15.37l0.85 3.34 -18.95 2.89 -0.56 -1.89c-1.16,-3.95 -3.36,-7.07 -6.94,-9.04 -4.14,-2.28 -9.46,-2.95 -14.49,-2.95 -5.9,0 -12.4,0.76 -18.26,3.32 -4.22,1.84 -8.18,4.49 -10.87,8.38 -2.44,3.53 -4.12,7.28 -4.84,11.24 -0.85,4.59 -0.77,9.08 0.84,13.07 1.56,3.88 4.59,6.42 8.43,8.07 4.61,1.99 9.68,2.86 15.02,2.86 5.86,0 12.03,-0.95 17.73,-3.82 4.86,-2.44 8.44,-6.01 10.88,-10.81l1.17 -2.31z"/>
   <path class="fil1" d="M652.1 59.06c3.41,2.43 6.39,5.36 8.93,8.65l17.37 22.5 -23.99 0 -11.14 -14.43c-2.34,-3.02 -4.81,-6.08 -7.51,-8.79 -1.46,-1.46 -3.24,-3.02 -5.17,-3.91 -1.55,-0.72 -3.23,-1.24 -4.9,-1.52 -2.11,-0.29 -4.6,-0.28 -6.79,-0.28l-12.2 0 -5.32 28.93 -18.64 0 13.01 -70.77 46.27 0c6.53,0 14.24,0.22 20.29,1.85 4.47,1.21 8.33,3.41 10.97,7.01 2.42,3.3 3.48,7.21 2.65,11.71 -1.11,6.01 -5.11,10.62 -10.52,13.99 -3.96,2.47 -8.64,4.04 -13.32,5.05zm-42.98 -10.87l25.03 0c4.21,0 9.13,-0.15 13.42,-1.15 2.3,-0.54 4.88,-1.46 6.79,-3.13 1.24,-1.09 2.25,-2.35 2.53,-3.89 0.45,-2.44 -0.92,-4.01 -2.69,-5.19 -3.37,-2.24 -9.7,-2.58 -13.98,-2.58l-28.18 0 -2.93 15.93z"/>
   <polygon class="fil1" points="512.16,32.71 509.52,47.1 563.61,47.1 561.17,60.37 507.08,60.37 504.03,76.94 564.15,76.94 561.71,90.21 482.95,90.21 495.96,19.44 572.39,19.44 569.96,32.71 "/>
   <path class="fil1" d="M413.48 71.53c1.22,-1.77 2.45,-3.52 3.68,-5.27l33 -46.82 21.9 0 -13.01 70.77 -18.1 0 8.44 -45.89 -32.54 45.89 -15.11 0 -15.19 -46.59 -8.57 46.59 -18.09 0 13.01 -70.77 24 0 15.21 47.66c0.47,1.47 0.93,2.95 1.39,4.43z"/>
   <path class="fil1" d="M298.71 19.44l18.64 0 -7.43 40.44c-1.05,5.73 -3,11.98 -6.84,17.01 -3.88,5.08 -9.65,8.37 -15.35,10.58 -7.91,3.05 -16.77,3.84 -24.65,3.84 -7.7,0 -16.03,-0.69 -22.83,-3.32 -5.19,-2.01 -9.78,-5.17 -12.03,-10.29 -2.3,-5.22 -2,-11.77 -0.89,-17.82l7.43 -40.44 18.64 0 -7.43 40.42c-0.6,3.28 -1.23,8.18 -0.05,11.08 1,2.48 3.33,4.01 5.77,5 3.81,1.54 8.38,2 12.72,2 5.48,0 14.12,-0.48 19.38,-3.78 4.75,-2.99 6.63,-9.59 7.49,-14.29l7.43 -40.42z"/>
   <path class="fil1" d="M53.61 71.53c1.22,-1.77 2.45,-3.52 3.68,-5.27l33 -46.82 21.9 0 -13.01 70.77 -18.1 0 8.44 -45.89 -32.54 45.89 -15.11 0 -15.19 -46.59 -8.57 46.59 -18.1 0 13.01 -70.77 24 0 15.21 47.66c0.47,1.47 0.94,2.95 1.39,4.43z"/>
   <path class="fil0" d="M1063.51 23.74l-9.77 0 -0.36 1.96c1.48,1.79 2.06,4.24 1.59,6.8 -0.97,5.28 -6.04,9.56 -11.32,9.56 -5.28,0 -8.77,-4.28 -7.8,-9.56 0.49,-2.69 2.09,-5.24 4.39,-7.04l0.32 -1.72 -24.54 0 -0.32 1.72c1.63,1.8 2.29,4.36 1.8,7.04 -0.97,5.28 -6.04,9.56 -11.32,9.56 -5.28,0 -8.77,-4.28 -7.8,-9.56 0.47,-2.57 1.95,-5.01 4.09,-6.8l0.36 -1.96 -9.77 0c-3.11,0 -5.83,2.56 -6.7,5.66l-15.32 54.63c-0.87,3.1 1.51,5.66 4.62,5.66l81 0c3.11,0 6.43,-2.56 6.7,-5.66l4.77 -54.63c0.27,-3.1 -1.51,-5.66 -4.62,-5.66z"/>
   <path class="fil0" d="M1049.6 28.02l2.07 -11.28c1.69,-9.21 -3.97,-16.74 -13.17,-16.74l-10.83 0c-9.2,0 -18.49,7.54 -20.18,16.74l-2.07 11.26c-1.56,1.02 -2.76,2.66 -3.1,4.51 -0.57,3.1 1.48,5.61 4.58,5.61 3.1,0 6.07,-2.51 6.64,-5.61 0.35,-1.88 -0.28,-3.55 -1.51,-4.57l2.06 -11.19c1.02,-5.57 6.81,-10.15 12.38,-10.15l10.83 0c5.57,0 8.81,4.58 7.79,10.15l-2.05 11.17c-1.63,1.01 -2.88,2.69 -3.23,4.59 -0.57,3.1 1.48,5.61 4.58,5.61 3.1,0 6.07,-2.51 6.64,-5.61 0.34,-1.83 -0.24,-3.46 -1.41,-4.48z"/>
  </g>
 </g>
</svg>
