<?xml version="1.0" encoding="UTF-8"?>
<!DOCTYPE svg PUBLIC "-//W3C//DTD SVG 1.1//EN" "http://www.w3.org/Graphics/SVG/1.1/DTD/svg11.dtd">
<!-- Creator: CorelDRAW Home & Student 2018 -->
<svg xmlns="http://www.w3.org/2000/svg" xml:space="preserve" width="758px" height="81px" version="1.1" style="shape-rendering:geometricPrecision; text-rendering:geometricPrecision; image-rendering:optimizeQuality; fill-rule:evenodd; clip-rule:evenodd"
viewBox="0 0 758 80.983"
 xmlns:xlink="http://www.w3.org/1999/xlink">
 <defs>
  <style type="text/css">
   <![CDATA[
    .fil0 {fill:white}
   ]]>
  </style>
 </defs>
 <g id="Camada_x0020_1">
  <metadata id="CorelCorpID_0Corel-Layer"/>
  <g id="_641258488">
   <path class="fil0" d="M101.572 66.126c-4.103,0 -8.04,3.326 -8.795,7.428 -0.754,4.103 1.96,7.429 6.063,7.429 4.103,0 8.041,-3.326 8.795,-7.429 0.754,-4.102 -1.96,-7.428 -6.063,-7.428zm28.463 0c-4.103,0 -8.041,3.326 -8.795,7.428 -0.754,4.103 1.96,7.429 6.063,7.429 4.103,0 8.04,-3.326 8.795,-7.429 0.754,-4.102 -1.96,-7.428 -6.063,-7.428zm9.052 -5.779l-46.294 0c-2.392,0 -4.056,-1.789 -3.955,-4.097l-1.325 -45.897 -4.868 0c-2.615,0 -4.361,-2.14 -3.88,-4.755l0 0c0.481,-2.615 3.014,-4.754 5.629,-4.754l2.845 0 0 -0.017 0.044 0.017 5.682 0c2.189,0 3.768,1.497 3.944,3.519l0 0 0 0.007c0.013,0.141 0.018,0.283 0.016,0.429l0.322 9.058 57.842 0c0.825,0 1.475,0.341 1.875,0.984 0.401,0.644 0.44,1.412 0.116,2.219l-8.907 22.188c-0.492,1.228 -1.707,2.081 -2.963,2.081l-5.408 0 -0.019 0 -24.671 0 -15.324 0c-0.416,0 -0.805,0.172 -1.124,0.497 -0.319,0.325 -0.478,0.712 -0.46,1.117l0.31 6.869c0.028,0.607 0.475,1.026 1.098,1.026l13.751 0 23.538 0 3.935 0c2.615,0 4.361,2.139 3.88,4.754l0 0c-0.481,2.616 -3.014,4.755 -5.629,4.755zm1.458 -29.055l-41.611 0c-0.63,0 -1.08,-0.429 -1.1,-1.044l-0.144 -4.757c-0.012,-0.403 0.15,-0.785 0.468,-1.106 0.319,-0.322 0.705,-0.49 1.117,-0.49l43.64 0c0.412,0 0.736,0.168 0.936,0.489 0.201,0.32 0.222,0.702 0.063,1.105l-1.884 4.756c-0.245,0.617 -0.855,1.047 -1.485,1.047z"/>
   <path class="fil0" d="M618.525 64.017l9.235 -50.223 25.971 0c4.118,0 8.611,0.051 12.57,0.68 3.669,0.582 7.23,1.665 10.228,3.548 3.34,2.099 5.956,4.912 7.394,8.652 1.419,3.691 1.571,7.759 0.794,11.984 -0.642,3.493 -1.855,6.961 -3.892,10.156 -1.77,2.774 -3.939,5.316 -6.572,7.382 -2.394,1.879 -4.976,3.412 -7.724,4.54 -2.997,1.229 -6.165,1.985 -9.238,2.47 -3.899,0.615 -7.83,0.811 -11.662,0.811l-27.104 0zm14.962 -9.42l12.838 0c3.316,0 7.129,-0.094 10.508,-0.804 1.943,-0.408 4.141,-1.039 5.941,-2.109 2.167,-1.288 3.93,-3.011 5.34,-5.089 1.677,-2.469 2.598,-5.303 3.1,-8.034 0.635,-3.453 0.675,-7.185 -1.25,-9.82 -1.692,-2.316 -3.974,-3.859 -6.869,-4.643 -3.165,-0.858 -7.82,-0.884 -11.243,-0.884l-12.595 0 -5.77 31.383z"/>
   <path class="fil0" d="M596.109 50.008l-26.95 0 -10.124 14.009 -14.422 0 38.235 -50.223 12.396 0 21.544 50.223 -15.205 0 -5.474 -14.009zm-9.253 -24.356c-0.997,1.632 -2.072,3.23 -3.218,4.796l-7.902 10.591 16.868 0 -3.76 -9.832c-0.698,-1.825 -1.371,-3.678 -1.988,-5.555z"/>
   <path class="fil0" d="M537.479 43.547l12.932 2.239 -1.295 2.282c-3.185,5.613 -7.831,9.745 -13.638,12.534 -6.49,3.117 -13.441,4.19 -20.069,4.19 -6.308,0 -13.092,-0.685 -18.472,-3.209 -4.394,-2.061 -7.851,-5.156 -9.843,-9.564 -1.854,-4.103 -2.408,-8.594 -1.514,-13.458 0.938,-5.1 3.235,-9.769 7.103,-13.812 4.036,-4.218 9.031,-7.011 14.326,-8.822 6,-2.051 12.095,-2.908 18.065,-2.908 6.271,0 12.596,0.921 17.744,3.739 4.39,2.403 7.587,5.928 8.848,10.91l0.601 2.373 -13.446 2.053 -0.395 -1.344c-0.823,-2.802 -2.388,-5.013 -4.926,-6.413 -2.935,-1.619 -6.709,-2.091 -10.284,-2.091 -4.19,0 -8.798,0.541 -12.955,2.357 -2.991,1.306 -5.809,3.184 -7.715,5.951 -1.729,2.507 -2.922,5.163 -3.439,7.975 -0.599,3.26 -0.543,6.442 0.596,9.277 1.107,2.757 3.261,4.553 5.982,5.729 3.268,1.413 6.867,2.031 10.659,2.031 4.156,0 8.536,-0.673 12.584,-2.709 3.449,-1.735 5.989,-4.266 7.718,-7.67l0.833 -1.64z"/>
   <path class="fil0" d="M462.752 41.908c2.421,1.723 4.533,3.802 6.338,6.14l12.328 15.969 -17.028 0 -7.909 -10.236c-1.656,-2.145 -3.412,-4.319 -5.325,-6.237 -1.035,-1.038 -2.298,-2.14 -3.665,-2.777 -1.103,-0.513 -2.291,-0.879 -3.476,-1.083 -1.498,-0.207 -3.265,-0.197 -4.815,-0.197l-8.659 0 -3.776 20.53 -13.229 0 9.235 -50.223 32.838 0c4.636,0 10.103,0.153 14.396,1.311 3.174,0.856 5.91,2.421 7.785,4.974 1.72,2.34 2.469,5.12 1.882,8.314 -0.785,4.267 -3.628,7.534 -7.467,9.93 -2.809,1.752 -6.135,2.865 -9.453,3.585zm-30.503 -7.713l17.762 0c2.987,0 6.481,-0.105 9.525,-0.814 1.63,-0.38 3.462,-1.035 4.815,-2.218 0.882,-0.772 1.596,-1.665 1.798,-2.759 0.318,-1.729 -0.652,-2.848 -1.907,-3.682 -2.391,-1.589 -6.882,-1.83 -9.917,-1.83l-19.998 0 -2.078 11.303z"/>
   <polygon class="fil0" points="363.451,23.214 361.574,33.421 399.961,33.421 398.229,42.841 359.842,42.841 357.681,54.597 400.343,54.597 398.611,64.017 342.719,64.017 351.954,13.794 406.194,13.794 404.462,23.214 "/>
   <path class="fil0" d="M293.421 50.762c0.863,-1.253 1.737,-2.499 2.612,-3.741l23.417 -33.227 15.538 0 -9.235 50.223 -12.841 0 5.988 -32.567 -23.093 32.567 -10.724 0 -10.782 -33.063 -6.08 33.063 -12.841 0 9.235 -50.223 17.03 0 10.791 33.823c0.334,1.044 0.664,2.092 0.985,3.145z"/>
   <path class="fil0" d="M211.975 13.794l13.23 0 -5.276 28.695c-0.747,4.063 -2.129,8.502 -4.854,12.074 -2.75,3.605 -6.846,5.943 -10.896,7.505 -5.612,2.164 -11.9,2.724 -17.496,2.724 -5.462,0 -11.373,-0.488 -16.2,-2.357 -3.682,-1.425 -6.938,-3.671 -8.534,-7.299 -1.631,-3.706 -1.423,-8.356 -0.634,-12.647l5.277 -28.695 13.229 0 -5.274 28.684c-0.428,2.326 -0.871,5.804 -0.038,7.864 0.713,1.762 2.361,2.842 4.096,3.544 2.702,1.093 5.946,1.421 9.028,1.421 3.893,0 10.022,-0.34 13.751,-2.686 3.369,-2.119 4.704,-6.808 5.317,-10.143l5.274 -28.684z"/>
   <path class="fil0" d="M38.041 50.762c0.863,-1.253 1.737,-2.499 2.612,-3.741l23.417 -33.227 15.538 0 -9.235 50.223 -12.841 0 5.988 -32.567 -23.093 32.567 -10.725 0 -10.781 -33.063 -6.08 33.063 -12.841 0 9.235 -50.223 17.03 0 10.791 33.823c0.333,1.044 0.663,2.092 0.985,3.145z"/>
   <path class="fil0" d="M754.704 16.849l-6.932 0 -0.256 1.392c1.052,1.27 1.463,3.006 1.128,4.828 -0.689,3.746 -4.286,6.784 -8.032,6.784 -3.747,0 -6.227,-3.038 -5.538,-6.784 0.351,-1.909 1.486,-3.72 3.116,-5l0.224 -1.22 -17.415 0 -0.225 1.22c1.16,1.28 1.628,3.091 1.278,5 -0.689,3.746 -4.286,6.784 -8.033,6.784 -3.747,0 -6.226,-3.038 -5.537,-6.784 0.335,-1.822 1.384,-3.558 2.903,-4.828l0.256 -1.392 -6.932 0c-2.207,0 -4.138,1.819 -4.754,4.016l-10.871 38.764c-0.616,2.197 1.069,4.015 3.277,4.015l57.482 0c2.209,0 4.562,-1.817 4.754,-4.015l3.384 -38.764c0.192,-2.199 -1.072,-4.016 -3.277,-4.016z"/>
   <path class="fil0" d="M744.835 19.882l1.472 -8.002c1.201,-6.534 -2.816,-11.88 -9.345,-11.88l-7.686 0c-6.529,0 -13.122,5.352 -14.322,11.88l-1.469 7.987c-1.11,0.725 -1.957,1.887 -2.198,3.197 -0.404,2.199 1.05,3.981 3.248,3.981 2.199,0 4.308,-1.782 4.713,-3.981 0.246,-1.336 -0.197,-2.52 -1.075,-3.242l1.46 -7.942c0.727,-3.951 4.831,-7.201 8.782,-7.201l7.686 0c3.952,0 6.253,3.25 5.527,7.201l-1.458 7.928c-1.156,0.72 -2.044,1.91 -2.291,3.256 -0.405,2.199 1.05,3.981 3.248,3.981 2.198,0 4.308,-1.782 4.712,-3.981 0.239,-1.3 -0.172,-2.455 -1.004,-3.182z"/>
  </g>
 </g>
</svg>
